<svg xmlns="http://www.w3.org/2000/svg" xmlns:xlink="http://www.w3.org/1999/xlink" width="723" height="813" fill="#000" fill-opacity="1" stroke="#000" stroke-dasharray="none" stroke-dashoffset="0" stroke-linecap="square" stroke-linejoin="miter" stroke-miterlimit="10" stroke-opacity="1" stroke-width="1" color-interpolation="auto" color-rendering="auto" font-family="'Dialog'" font-size="12" font-style="normal" font-weight="normal" image-rendering="auto" shape-rendering="auto" text-rendering="auto"><g><defs id="defs1"><linearGradient id="linearGradient1" x1="158.313" x2="478.313" y1="305.5" y2="800.5" gradientUnits="userSpaceOnUse" spreadMethod="reflect"><stop offset="0%" stop-color="#E8EEF7" stop-opacity="1"/><stop offset="100%" stop-color="#B7C9E3" stop-opacity="1"/></linearGradient><linearGradient id="linearGradient2" x1="-68.75" x2="342.25" y1="18" y2="265" gradientUnits="userSpaceOnUse" spreadMethod="reflect"><stop offset="0%" stop-color="#E8EEF7" stop-opacity="1"/><stop offset="100%" stop-color="#B7C9E3" stop-opacity="1"/></linearGradient><linearGradient id="linearGradient3" x1="167.313" x2="419.313" y1="317.5" y2="417.5" gradientUnits="userSpaceOnUse" spreadMethod="reflect"><stop offset="0%" stop-color="#E8EEF7" stop-opacity="1"/><stop offset="100%" stop-color="#B7C9E3" stop-opacity="1"/></linearGradient><linearGradient id="linearGradient4" x1="167.313" x2="467.313" y1="431.5" y2="531.5" gradientUnits="userSpaceOnUse" spreadMethod="reflect"><stop offset="0%" stop-color="#E8EEF7" stop-opacity="1"/><stop offset="100%" stop-color="#B7C9E3" stop-opacity="1"/></linearGradient><linearGradient id="linearGradient5" x1="-214" x2="106" y1="305.5" y2="800.5" gradientUnits="userSpaceOnUse" spreadMethod="reflect"><stop offset="0%" stop-color="#E8EEF7" stop-opacity="1"/><stop offset="100%" stop-color="#B7C9E3" stop-opacity="1"/></linearGradient><clipPath id="clipPath1" clipPathUnits="userSpaceOnUse"><path d="M0 0 L723 0 L723 813 L0 813 L0 0 Z"/></clipPath><clipPath id="clipPath2" clipPathUnits="userSpaceOnUse"><path d="M-229 3 L494 3 L494 816 L-229 816 L-229 3 Z"/></clipPath></defs><g fill="#fff" stroke="#fff" shape-rendering="geometricPrecision" text-rendering="geometricPrecision" transform="translate(229,-3)"><rect width="723" height="813" x="-229" y="3" stroke="none" clip-path="url(#clipPath2)"/></g><g fill="url(#linearGradient1)" stroke="url(#linearGradient1)" shape-rendering="geometricPrecision" text-rendering="geometricPrecision" transform="matrix(1,0,0,1,229,-3)"><path stroke="none" d="M158.3134 305.5 L478.3134 305.5 L478.3134 800.5 L158.3134 800.5 Z" clip-path="url(#clipPath2)"/></g><g stroke-linecap="butt" stroke-miterlimit="1.45" shape-rendering="geometricPrecision" text-rendering="geometricPrecision"><path fill="none" d="M158.3134 305.5 L478.3134 305.5 L478.3134 800.5 L158.3134 800.5 Z" clip-path="url(#clipPath2)" transform="matrix(1,0,0,1,229,-3)"/><text x="256.863" y="557.535" stroke="none" clip-path="url(#clipPath2)" font-family="sans-serif" transform="matrix(1,0,0,1,229,-3)" xml:space="preserve">Release 1.12.2-0.3.0</text></g><g fill="url(#linearGradient2)" stroke="url(#linearGradient2)" shape-rendering="geometricPrecision" text-rendering="geometricPrecision" transform="matrix(1,0,0,1,229,-3)"><path stroke="none" d="M-68.75 18 L342.25 18 L342.25 265 L-68.75 265 Z" clip-path="url(#clipPath2)"/></g><g stroke-linecap="butt" stroke-miterlimit="1.45" shape-rendering="geometricPrecision" text-rendering="geometricPrecision"><path fill="none" d="M-68.75 18 L342.25 18 L342.25 265 L-68.75 265 Z" clip-path="url(#clipPath2)" transform="matrix(1,0,0,1,229,-3)"/><text x="95.257" y="146.035" stroke="none" clip-path="url(#clipPath2)" font-family="sans-serif" transform="matrix(1,0,0,1,229,-3)" xml:space="preserve">Todo Diagram</text></g><g fill="url(#linearGradient3)" stroke="url(#linearGradient3)" shape-rendering="geometricPrecision" text-rendering="geometricPrecision" transform="matrix(1,0,0,1,229,-3)"><path stroke="none" d="M167.3134 317.5 L419.3134 317.5 L419.3134 417.5 L167.3134 417.5 Z" clip-path="url(#clipPath2)"/></g><g stroke-linecap="butt" stroke-miterlimit="1.45" shape-rendering="geometricPrecision" text-rendering="geometricPrecision"><path fill="none" d="M167.3134 317.5 L419.3134 317.5 L419.3134 417.5 L167.3134 417.5 Z" clip-path="url(#clipPath2)" transform="matrix(1,0,0,1,229,-3)"/><text x="230.475" y="372.035" stroke="none" clip-path="url(#clipPath2)" font-family="sans-serif" transform="matrix(1,0,0,1,229,-3)" xml:space="preserve">Terrain - 1 Algorithm</text></g><g fill="#FC0" stroke="#FC0" shape-rendering="geometricPrecision" text-rendering="geometricPrecision" transform="matrix(1,0,0,1,229,-3)"><rect width="100" height="30" x="76.75" y="26" stroke="none" clip-path="url(#clipPath2)" rx="4" ry="4"/></g><g stroke-linecap="butt" stroke-miterlimit="1.45" shape-rendering="geometricPrecision" text-rendering="geometricPrecision" transform="matrix(1,0,0,1,229,-3)"><rect width="100" height="30" x="76.75" y="26" fill="none" clip-path="url(#clipPath2)" rx="4" ry="4"/><text x="99.228" y="45.535" stroke="none" clip-path="url(#clipPath2)" font-family="sans-serif" xml:space="preserve">tempcore</text></g><g fill="#FC0" stroke="#FC0" shape-rendering="geometricPrecision" text-rendering="geometricPrecision" transform="matrix(1,0,0,1,229,-3)"><rect width="76" height="30" x="241.25" y="66" stroke="none" clip-path="url(#clipPath2)" rx="4" ry="4"/></g><g stroke-linecap="butt" stroke-miterlimit="1.45" shape-rendering="geometricPrecision" text-rendering="geometricPrecision" transform="matrix(1,0,0,1,229,-3)"><rect width="76" height="30" x="241.25" y="66" fill="none" clip-path="url(#clipPath2)" rx="4" ry="4"/><text x="247.205" y="85.535" stroke="none" clip-path="url(#clipPath2)" font-family="sans-serif" xml:space="preserve">Cull Facing</text></g><g fill="#FC0" stroke="#FC0" shape-rendering="geometricPrecision" text-rendering="geometricPrecision" transform="matrix(1,0,0,1,229,-3)"><rect width="61" height="30" x="-41.75" y="66" stroke="none" clip-path="url(#clipPath2)" rx="4" ry="4"/></g><g stroke-linecap="butt" stroke-miterlimit="1.45" shape-rendering="geometricPrecision" text-rendering="geometricPrecision" transform="matrix(1,0,0,1,229,-3)"><rect width="61" height="30" x="-41.75" y="66" fill="none" clip-path="url(#clipPath2)" rx="4" ry="4"/><text x="-39.551" y="85.535" stroke="none" clip-path="url(#clipPath2)" font-family="sans-serif" xml:space="preserve">Collisions</text></g><g fill="#FC0" stroke="#FC0" shape-rendering="geometricPrecision" text-rendering="geometricPrecision" transform="matrix(1,0,0,1,229,-3)"><rect width="100" height="30" x="76.75" y="92" stroke="none" clip-path="url(#clipPath2)" rx="4" ry="4"/></g><g stroke-linecap="butt" stroke-miterlimit="1.45" shape-rendering="geometricPrecision" text-rendering="geometricPrecision" transform="matrix(1,0,0,1,229,-3)"><rect width="100" height="30" x="76.75" y="92" fill="none" clip-path="url(#clipPath2)" rx="4" ry="4"/><text x="87.794" y="111.535" stroke="none" clip-path="url(#clipPath2)" font-family="sans-serif" xml:space="preserve">Delta patcher</text></g><g fill="#FC0" stroke="#FC0" shape-rendering="geometricPrecision" text-rendering="geometricPrecision" transform="matrix(1,0,0,1,229,-3)"><rect width="121" height="30" x="66.25" y="172" stroke="none" clip-path="url(#clipPath2)" rx="4" ry="4"/></g><g stroke-linecap="butt" stroke-miterlimit="1.45" shape-rendering="geometricPrecision" text-rendering="geometricPrecision" transform="matrix(1,0,0,1,229,-3)"><rect width="121" height="30" x="66.25" y="172" fill="none" clip-path="url(#clipPath2)" rx="4" ry="4"/><text x="73.157" y="191.535" stroke="none" clip-path="url(#clipPath2)" font-family="sans-serif" xml:space="preserve">Extract to libraries</text></g><g fill="#FC0" stroke="#FC0" shape-rendering="geometricPrecision" text-rendering="geometricPrecision" transform="matrix(1,0,0,1,229,-3)"><rect width="157.5" height="30" x="48" y="226" stroke="none" clip-path="url(#clipPath2)" rx="4" ry="4"/></g><g stroke-linecap="butt" stroke-miterlimit="1.45" shape-rendering="geometricPrecision" text-rendering="geometricPrecision" transform="matrix(1,0,0,1,229,-3)"><rect width="157.5" height="30" x="48" y="226" fill="none" clip-path="url(#clipPath2)" rx="4" ry="4"/><text x="55.345" y="245.535" stroke="none" clip-path="url(#clipPath2)" font-family="sans-serif" xml:space="preserve">package inside NoCubes</text></g><g fill="#FC0" stroke="#FC0" shape-rendering="geometricPrecision" text-rendering="geometricPrecision" transform="matrix(1,0,0,1,229,-3)"><rect width="100" height="30" x="178.313" y="324.5" stroke="none" clip-path="url(#clipPath2)" rx="4" ry="4"/></g><g stroke-linecap="butt" stroke-miterlimit="1.45" shape-rendering="geometricPrecision" text-rendering="geometricPrecision" transform="matrix(1,0,0,1,229,-3)"><rect width="100" height="30" x="178.313" y="324.5" fill="none" clip-path="url(#clipPath2)" rx="4" ry="4"/><text x="187.617" y="344.035" stroke="none" clip-path="url(#clipPath2)" font-family="sans-serif" xml:space="preserve">Render Terain</text></g><g fill="#FC0" stroke="#FC0" shape-rendering="geometricPrecision" text-rendering="geometricPrecision" transform="matrix(1,0,0,1,229,-3)"><rect width="121" height="30" x="289.313" y="324.5" stroke="none" clip-path="url(#clipPath2)" rx="4" ry="4"/></g><g stroke-linecap="butt" stroke-miterlimit="1.45" shape-rendering="geometricPrecision" text-rendering="geometricPrecision" transform="matrix(1,0,0,1,229,-3)"><rect width="121" height="30" x="289.313" y="324.5" fill="none" clip-path="url(#clipPath2)" rx="4" ry="4"/><text x="298.796" y="344.035" stroke="none" clip-path="url(#clipPath2)" font-family="sans-serif" xml:space="preserve">Terrain Collisions</text></g><g fill="url(#linearGradient4)" stroke="url(#linearGradient4)" shape-rendering="geometricPrecision" text-rendering="geometricPrecision" transform="matrix(1,0,0,1,229,-3)"><path stroke="none" d="M167.3134 431.5 L467.3134 431.5 L467.3134 531.5 L167.3134 531.5 Z" clip-path="url(#clipPath2)"/></g><g stroke-linecap="butt" stroke-miterlimit="1.45" shape-rendering="geometricPrecision" text-rendering="geometricPrecision"><path fill="none" d="M167.3134 431.5 L467.3134 431.5 L467.3134 531.5 L167.3134 531.5 Z" clip-path="url(#clipPath2)" transform="matrix(1,0,0,1,229,-3)"/><text x="255.931" y="486.035" stroke="none" clip-path="url(#clipPath2)" font-family="sans-serif" transform="matrix(1,0,0,1,229,-3)" xml:space="preserve">Leaves - 1 Algorithm</text></g><g fill="#FC0" stroke="#FC0" shape-rendering="geometricPrecision" text-rendering="geometricPrecision" transform="matrix(1,0,0,1,229,-3)"><rect width="100" height="30" x="178.313" y="438.5" stroke="none" clip-path="url(#clipPath2)" rx="4" ry="4"/></g><g stroke-linecap="butt" stroke-miterlimit="1.45" shape-rendering="geometricPrecision" text-rendering="geometricPrecision" transform="matrix(1,0,0,1,229,-3)"><rect width="100" height="30" x="178.313" y="438.5" fill="none" clip-path="url(#clipPath2)" rx="4" ry="4"/><text x="186.618" y="458.035" stroke="none" clip-path="url(#clipPath2)" font-family="sans-serif" xml:space="preserve">Render Leaves</text></g><g fill="#FC0" stroke="#FC0" shape-rendering="geometricPrecision" text-rendering="geometricPrecision" transform="matrix(1,0,0,1,229,-3)"><rect width="165" height="30" x="291.313" y="438.5" stroke="none" clip-path="url(#clipPath2)" rx="4" ry="4"/></g><g stroke-linecap="butt" stroke-miterlimit="1.45" shape-rendering="geometricPrecision" text-rendering="geometricPrecision" transform="matrix(1,0,0,1,229,-3)"><rect width="165" height="30" x="291.313" y="438.5" fill="none" clip-path="url(#clipPath2)" rx="4" ry="4"/><text x="298.459" y="458.035" stroke="none" clip-path="url(#clipPath2)" font-family="sans-serif" xml:space="preserve">Random Leaves Collisions</text></g><g fill="#FC0" stroke="#FC0" shape-rendering="geometricPrecision" text-rendering="geometricPrecision" transform="matrix(1,0,0,1,229,-3)"><rect width="100" height="30" x="172.313" y="575.5" stroke="none" clip-path="url(#clipPath2)" rx="4" ry="4"/></g><g stroke-linecap="butt" stroke-miterlimit="1.45" shape-rendering="geometricPrecision" text-rendering="geometricPrecision" transform="matrix(1,0,0,1,229,-3)"><rect width="100" height="30" x="172.313" y="575.5" fill="none" clip-path="url(#clipPath2)" rx="4" ry="4"/><text x="190.268" y="595.035" stroke="none" clip-path="url(#clipPath2)" font-family="sans-serif" xml:space="preserve">Cull Facing</text></g><g fill="#FC0" stroke="#FC0" shape-rendering="geometricPrecision" text-rendering="geometricPrecision" transform="matrix(1,0,0,1,229,-3)"><rect width="100" height="30" x="172.313" y="623.5" stroke="none" clip-path="url(#clipPath2)" rx="4" ry="4"/></g><g stroke-linecap="butt" stroke-miterlimit="1.45" shape-rendering="geometricPrecision" text-rendering="geometricPrecision" transform="matrix(1,0,0,1,229,-3)"><rect width="100" height="30" x="172.313" y="623.5" fill="none" clip-path="url(#clipPath2)" rx="4" ry="4"/><text x="183.152" y="643.035" stroke="none" clip-path="url(#clipPath2)" font-family="sans-serif" xml:space="preserve">Extend Fluids</text></g><g fill="url(#linearGradient5)" stroke="url(#linearGradient5)" shape-rendering="geometricPrecision" text-rendering="geometricPrecision" transform="matrix(1,0,0,1,229,-3)"><path stroke="none" d="M-214 305.5 L106 305.5 L106 800.5 L-214 800.5 Z" clip-path="url(#clipPath2)"/></g><g stroke-linecap="butt" stroke-miterlimit="1.45" shape-rendering="geometricPrecision" text-rendering="geometricPrecision"><path fill="none" d="M-214 305.5 L106 305.5 L106 800.5 L-214 800.5 Z" clip-path="url(#clipPath2)" transform="matrix(1,0,0,1,229,-3)"/><text x="-108.853" y="557.535" stroke="none" clip-path="url(#clipPath2)" font-family="sans-serif" transform="matrix(1,0,0,1,229,-3)" xml:space="preserve">Collisions Diagram</text></g><g fill="#FC0" stroke="#FC0" shape-rendering="geometricPrecision" text-rendering="geometricPrecision" transform="matrix(1,0,0,1,229,-3)"><rect width="121" height="30" x="-214" y="305.5" stroke="none" clip-path="url(#clipPath2)" rx="4" ry="4"/></g><g stroke-linecap="butt" stroke-miterlimit="1.45" shape-rendering="geometricPrecision" text-rendering="geometricPrecision" transform="matrix(1,0,0,1,229,-3)"><rect width="121" height="30" x="-214" y="305.5" fill="none" clip-path="url(#clipPath2)" rx="4" ry="4"/><text x="-211.449" y="325.035" stroke="none" clip-path="url(#clipPath2)" font-family="sans-serif" xml:space="preserve">Add Collision Boxes</text></g><g fill="#FC0" stroke="#FC0" shape-rendering="geometricPrecision" text-rendering="geometricPrecision" transform="matrix(1,0,0,1,229,-3)"><rect width="100" height="30" x="-109.5" y="354.5" stroke="none" clip-path="url(#clipPath2)" rx="4" ry="4"/></g><g stroke-linecap="butt" stroke-miterlimit="1.45" shape-rendering="geometricPrecision" text-rendering="geometricPrecision" transform="matrix(1,0,0,1,229,-3)"><rect width="100" height="30" x="-109.5" y="354.5" fill="none" clip-path="url(#clipPath2)" rx="4" ry="4"/><text x="-87.022" y="374.035" stroke="none" clip-path="url(#clipPath2)" font-family="sans-serif" xml:space="preserve">tempcore</text></g><g fill="#FC0" stroke="#FC0" shape-rendering="geometricPrecision" text-rendering="geometricPrecision" transform="matrix(1,0,0,1,229,-3)"><rect width="157.5" height="30" x="-138.25" y="431.5" stroke="none" clip-path="url(#clipPath2)" rx="4" ry="4"/></g><g stroke-linecap="butt" stroke-miterlimit="1.45" shape-rendering="geometricPrecision" text-rendering="geometricPrecision" transform="matrix(1,0,0,1,229,-3)"><rect width="157.5" height="30" x="-138.25" y="431.5" fill="none" clip-path="url(#clipPath2)" rx="4" ry="4"/><text x="-134.635" y="451.035" stroke="none" clip-path="url(#clipPath2)" font-family="sans-serif" xml:space="preserve">Add Collision Boxes Hook</text></g><g fill="#FC0" stroke="#FC0" shape-rendering="geometricPrecision" text-rendering="geometricPrecision" transform="matrix(1,0,0,1,229,-3)"><rect width="121" height="30" x="-35.5" y="491.5" stroke="none" clip-path="url(#clipPath2)" rx="4" ry="4"/></g><g stroke-linecap="butt" stroke-miterlimit="1.45" shape-rendering="geometricPrecision" text-rendering="geometricPrecision" transform="matrix(1,0,0,1,229,-3)"><rect width="121" height="30" x="-35.5" y="491.5" fill="none" clip-path="url(#clipPath2)" rx="4" ry="4"/><text x="-33.714" y="511.035" stroke="none" clip-path="url(#clipPath2)" font-family="sans-serif" xml:space="preserve">Generate Block Data</text></g><g fill="#FC0" stroke="#FC0" shape-rendering="geometricPrecision" text-rendering="geometricPrecision" transform="matrix(1,0,0,1,229,-3)"><rect width="121" height="30" x="-35.5" y="581" stroke="none" clip-path="url(#clipPath2)" rx="4" ry="4"/></g><g stroke-linecap="butt" stroke-miterlimit="1.45" shape-rendering="geometricPrecision" text-rendering="geometricPrecision" transform="matrix(1,0,0,1,229,-3)"><rect width="121" height="30" x="-35.5" y="581" fill="none" clip-path="url(#clipPath2)" rx="4" ry="4"/><text x="-17.791" y="600.535" stroke="none" clip-path="url(#clipPath2)" font-family="sans-serif" xml:space="preserve">Offset Vertices</text></g><g fill="#FC0" stroke="#FC0" shape-rendering="geometricPrecision" text-rendering="geometricPrecision" transform="matrix(1,0,0,1,229,-3)"><rect width="121" height="30" x="-120" y="641" stroke="none" clip-path="url(#clipPath2)" rx="4" ry="4"/></g><g stroke-linecap="butt" stroke-miterlimit="1.45" shape-rendering="geometricPrecision" text-rendering="geometricPrecision" transform="matrix(1,0,0,1,229,-3)"><rect width="121" height="30" x="-120" y="641" fill="none" clip-path="url(#clipPath2)" rx="4" ry="4"/><text x="-116.163" y="660.535" stroke="none" clip-path="url(#clipPath2)" font-family="sans-serif" xml:space="preserve">Interpolate Vertices</text></g><g fill="#FC0" stroke="#FC0" shape-rendering="geometricPrecision" text-rendering="geometricPrecision" transform="matrix(1,0,0,1,229,-3)"><rect width="157.5" height="30" x="-138.25" y="701" stroke="none" clip-path="url(#clipPath2)" rx="4" ry="4"/></g><g stroke-linecap="butt" stroke-miterlimit="1.45" shape-rendering="geometricPrecision" text-rendering="geometricPrecision" transform="matrix(1,0,0,1,229,-3)"><rect width="157.5" height="30" x="-138.25" y="701" fill="none" clip-path="url(#clipPath2)" rx="4" ry="4"/><text x="-131.857" y="720.535" stroke="none" clip-path="url(#clipPath2)" font-family="sans-serif" xml:space="preserve">Generate Collision Boxes</text></g><g fill="#FC0" stroke="#FC0" shape-rendering="geometricPrecision" text-rendering="geometricPrecision" transform="matrix(1,0,0,1,229,-3)"><rect width="121" height="30" x="-214" y="770.5" stroke="none" clip-path="url(#clipPath2)" rx="4" ry="4"/></g><g stroke-linecap="butt" stroke-miterlimit="1.45" shape-rendering="geometricPrecision" text-rendering="geometricPrecision" transform="matrix(1,0,0,1,229,-3)"><rect width="121" height="30" x="-214" y="770.5" fill="none" clip-path="url(#clipPath2)" rx="4" ry="4"/><text x="-206.041" y="790.035" stroke="none" clip-path="url(#clipPath2)" font-family="sans-serif" xml:space="preserve">Collisions Happen</text><path fill="none" d="M176.2306 53.9785 L233.5083 69.0022" clip-path="url(#clipPath2)"/><path stroke="none" d="M241.2465 71.0319 L230.9077 63.1509 L232.541 68.7485 L228.3706 72.8237 Z" clip-path="url(#clipPath2)"/><path fill="none" d="M78.2007 55.0723 L26.964 69.9235" clip-path="url(#clipPath2)"/><path stroke="none" d="M19.2803 72.1506 L32.1979 73.6122 L27.9245 69.6451 L29.4139 64.0076 Z" clip-path="url(#clipPath2)"/><path fill="none" d="M241.2367 87.481 L184.6403 97.1302" clip-path="url(#clipPath2)"/><path stroke="none" d="M176.7541 98.4747 L189.4237 101.3868 L185.6261 96.9621 L187.743 91.529 Z" clip-path="url(#clipPath2)"/><path fill="none" d="M19.2407 86.7446 L68.8871 96.0983" clip-path="url(#clipPath2)"/><path stroke="none" d="M76.7487 97.5795 L65.882 90.4441 L67.9044 95.9131 L64.0305 100.2712 Z" clip-path="url(#clipPath2)"/><path fill="none" d="M126.75 121.9609 L126.75 163.9788" clip-path="url(#clipPath2)"/><path stroke="none" d="M126.75 171.9788 L131.75 159.9788 L126.75 162.9788 L121.75 159.9788 Z" clip-path="url(#clipPath2)"/><path fill="none" d="M126.75 202.0029 L126.75 218.0334" clip-path="url(#clipPath2)"/><path stroke="none" d="M126.75 226.0334 L131.75 214.0334 L126.75 217.0334 L121.75 214.0334 Z" clip-path="url(#clipPath2)"/><path fill="none" d="M-124.7446 335.4895 L-95.3616 350.8062" clip-path="url(#clipPath2)"/><path stroke="none" d="M-88.2675 354.5042 L-96.5974 344.5235 L-96.2483 350.344 L-101.2198 353.391 Z" clip-path="url(#clipPath2)"/><path fill="none" d="M-59.5 384.5015 L-59.5 423.515" clip-path="url(#clipPath2)"/><path stroke="none" d="M-59.5 431.515 L-54.5 419.515 L-59.5 422.515 L-64.5 419.515 Z" clip-path="url(#clipPath2)"/><path fill="none" d="M-38.3956 461.4854 L-2.6651 486.8562" clip-path="url(#clipPath2)"/><path stroke="none" d="M3.8578 491.4878 L-3.0318 480.4636 L-3.4804 486.2772 L-8.8213 488.6172 Z" clip-path="url(#clipPath2)"/><path fill="none" d="M25 521.4895 L25 572.9742" clip-path="url(#clipPath2)"/><path stroke="none" d="M25 580.9742 L30 568.9742 L25 571.9742 L20 568.9742 Z" clip-path="url(#clipPath2)"/><path fill="none" d="M3.8956 610.9854 L-31.8349 636.3561" clip-path="url(#clipPath2)"/><path stroke="none" d="M-38.3578 640.9878 L-25.6787 638.1171 L-31.0196 635.7772 L-31.4683 629.9635 Z" clip-path="url(#clipPath2)"/><path fill="none" d="M-59.5 670.9707 L-59.5 693.0049" clip-path="url(#clipPath2)"/><path stroke="none" d="M-59.5 701.0049 L-54.5 689.0049 L-59.5 692.0049 L-64.5 689.0049 Z" clip-path="url(#clipPath2)"/><path fill="none" d="M-79.8101 731.0165 L-126.8098 765.7662" clip-path="url(#clipPath2)"/><path stroke="none" d="M-133.2424 770.5223 L-120.6208 767.4086 L-126.0057 765.1718 L-126.566 759.3677 Z" clip-path="url(#clipPath2)"/></g></g></svg>