<svg xmlns="http://www.w3.org/2000/svg" xmlns:xlink="http://www.w3.org/1999/xlink" width="1390" height="1059" fill="#000" fill-opacity="1" stroke="#000" stroke-dasharray="none" stroke-dashoffset="0" stroke-linecap="square" stroke-linejoin="miter" stroke-miterlimit="10" stroke-opacity="1" stroke-width="1" color-interpolation="auto" color-rendering="auto" font-family="'Dialog'" font-size="12" font-style="normal" font-weight="normal" image-rendering="auto" shape-rendering="auto" text-rendering="auto"><g><defs id="defs1"><clipPath id="clipPath1" clipPathUnits="userSpaceOnUse"><path d="M0 0 L1390 0 L1390 1059 L0 1059 L0 0 Z"/></clipPath><clipPath id="clipPath2" clipPathUnits="userSpaceOnUse"><path d="M-112 -429 L1278 -429 L1278 630 L-112 630 L-112 -429 Z"/></clipPath></defs><g fill="#fff" stroke="#fff" shape-rendering="geometricPrecision" text-rendering="geometricPrecision" transform="translate(112,429)"><rect width="1390" height="1059" x="-112" y="-429" stroke="none" clip-path="url(#clipPath2)"/></g><g fill="#f0f" stroke="#f0f" shape-rendering="geometricPrecision" text-rendering="geometricPrecision" transform="matrix(1,0,0,1,112,429)"><rect width="175" height="44" x="551" y="-200" stroke="none" clip-path="url(#clipPath2)" rx="4" ry="4"/></g><g stroke-linecap="butt" stroke-miterlimit="1.45" shape-rendering="geometricPrecision" text-rendering="geometricPrecision" transform="matrix(1,0,0,1,112,429)"><rect width="175" height="44" x="551" y="-200" fill="none" clip-path="url(#clipPath2)" rx="4" ry="4"/><text x="576.303" y="-173.465" stroke="none" clip-path="url(#clipPath2)" font-family="sans-serif" xml:space="preserve">No coremod installed</text></g><g fill="#FC0" stroke="#FC0" shape-rendering="geometricPrecision" text-rendering="geometricPrecision" transform="matrix(1,0,0,1,112,429)"><rect width="187" height="44" x="292.5" y="-200" stroke="none" clip-path="url(#clipPath2)" rx="4" ry="4"/></g><g stroke-linecap="butt" stroke-miterlimit="1.45" shape-rendering="geometricPrecision" text-rendering="geometricPrecision" transform="matrix(1,0,0,1,112,429)"><rect width="187" height="44" x="292.5" y="-200" fill="none" clip-path="url(#clipPath2)" rx="4" ry="4"/><text x="301.168" y="-180.531" stroke="none" clip-path="url(#clipPath2)" font-family="sans-serif" xml:space="preserve">Coremod installed with other</text><text x="357.321" y="-166.398" stroke="none" clip-path="url(#clipPath2)" font-family="sans-serif" xml:space="preserve">coremods</text></g><g fill="#F60" stroke="#F60" shape-rendering="geometricPrecision" text-rendering="geometricPrecision" transform="matrix(1,0,0,1,112,429)"><rect width="175" height="44" x="46" y="-200" stroke="none" clip-path="url(#clipPath2)" rx="4" ry="4"/></g><g stroke-linecap="butt" stroke-miterlimit="1.45" shape-rendering="geometricPrecision" text-rendering="geometricPrecision" transform="matrix(1,0,0,1,112,429)"><rect width="175" height="44" x="46" y="-200" fill="none" clip-path="url(#clipPath2)" rx="4" ry="4"/><text x="67.529" y="-180.531" stroke="none" clip-path="url(#clipPath2)" font-family="sans-serif" xml:space="preserve">Coremod installed and</text><text x="51.603" y="-166.398" stroke="none" clip-path="url(#clipPath2)" font-family="sans-serif" xml:space="preserve">no other coremods installed</text></g><g fill="#F60" stroke="#F60" shape-rendering="geometricPrecision" text-rendering="geometricPrecision" transform="matrix(1,0,0,1,112,429)"><rect width="193" height="49" x="37" y="-113.5" stroke="none" clip-path="url(#clipPath2)" rx="4" ry="4"/></g><g stroke-linecap="butt" stroke-miterlimit="1.45" shape-rendering="geometricPrecision" text-rendering="geometricPrecision" transform="matrix(1,0,0,1,112,429)"><rect width="193" height="49" x="37" y="-113.5" fill="none" clip-path="url(#clipPath2)" rx="4" ry="4"/><text x="45.577" y="-91.531" stroke="none" clip-path="url(#clipPath2)" font-family="sans-serif" xml:space="preserve">Cancel entire chunk rendering</text><text x="78.044" y="-77.398" stroke="none" clip-path="url(#clipPath2)" font-family="sans-serif" xml:space="preserve">and do it ourselves</text></g><g fill="#FC0" stroke="#FC0" shape-rendering="geometricPrecision" text-rendering="geometricPrecision" transform="matrix(1,0,0,1,112,429)"><rect width="187" height="44" x="292.5" y="-111" stroke="none" clip-path="url(#clipPath2)" rx="4" ry="4"/></g><g stroke-linecap="butt" stroke-miterlimit="1.45" shape-rendering="geometricPrecision" text-rendering="geometricPrecision" transform="matrix(1,0,0,1,112,429)"><rect width="187" height="44" x="292.5" y="-111" fill="none" clip-path="url(#clipPath2)" rx="4" ry="4"/><text x="297.896" y="-84.465" stroke="none" clip-path="url(#clipPath2)" font-family="sans-serif" xml:space="preserve">Render in the PreRender event</text></g><g fill="#f0f" stroke="#f0f" shape-rendering="geometricPrecision" text-rendering="geometricPrecision" transform="matrix(1,0,0,1,112,429)"><rect width="175" height="44" x="551" y="-111" stroke="none" clip-path="url(#clipPath2)" rx="4" ry="4"/></g><g stroke-linecap="butt" stroke-miterlimit="1.45" shape-rendering="geometricPrecision" text-rendering="geometricPrecision" transform="matrix(1,0,0,1,112,429)"><rect width="175" height="44" x="551" y="-111" fill="none" clip-path="url(#clipPath2)" rx="4" ry="4"/><text x="564.9" y="-84.465" stroke="none" clip-path="url(#clipPath2)" font-family="sans-serif" xml:space="preserve">Model hooking rendering</text></g><g fill="#F60" stroke="#F60" shape-rendering="geometricPrecision" text-rendering="geometricPrecision" transform="matrix(1,0,0,1,112,429)"><rect width="193" height="49" x="-96.597" y="-10.518" stroke="none" clip-path="url(#clipPath2)" rx="4" ry="4"/></g><g stroke-linecap="butt" stroke-miterlimit="1.45" shape-rendering="geometricPrecision" text-rendering="geometricPrecision" transform="matrix(1,0,0,1,112,429)"><rect width="193" height="49" x="-96.597" y="-10.518" fill="none" clip-path="url(#clipPath2)" rx="4" ry="4"/><text x="-50.414" y="11.451" stroke="none" clip-path="url(#clipPath2)" font-family="sans-serif" xml:space="preserve">Setup generator,</text><text x="-53.112" y="25.584" stroke="none" clip-path="url(#clipPath2)" font-family="sans-serif" xml:space="preserve">evaluate word etc.</text></g><g fill="#F60" stroke="#F60" shape-rendering="geometricPrecision" text-rendering="geometricPrecision" transform="matrix(1,0,0,1,112,429)"><rect width="193" height="49" x="-96.597" y="68.482" stroke="none" clip-path="url(#clipPath2)" rx="4" ry="4"/></g><g stroke-linecap="butt" stroke-miterlimit="1.45" shape-rendering="geometricPrecision" text-rendering="geometricPrecision" transform="matrix(1,0,0,1,112,429)"><rect width="193" height="49" x="-96.597" y="68.482" fill="none" clip-path="url(#clipPath2)" rx="4" ry="4"/><text x="-47.681" y="97.517" stroke="none" clip-path="url(#clipPath2)" font-family="sans-serif" xml:space="preserve">Generate caches</text></g><g fill="#F60" stroke="#F60" shape-rendering="geometricPrecision" text-rendering="geometricPrecision" transform="matrix(1,0,0,1,112,429)"><rect width="193" height="49" x="-96.597" y="159.092" stroke="none" clip-path="url(#clipPath2)" rx="4" ry="4"/></g><g stroke-linecap="butt" stroke-miterlimit="1.45" shape-rendering="geometricPrecision" text-rendering="geometricPrecision" transform="matrix(1,0,0,1,112,429)"><rect width="193" height="49" x="-96.597" y="159.092" fill="none" clip-path="url(#clipPath2)" rx="4" ry="4"/><text x="-60.92" y="188.127" stroke="none" clip-path="url(#clipPath2)" font-family="sans-serif" xml:space="preserve">Generate Scalar Field</text></g><g fill="#F60" stroke="#F60" shape-rendering="geometricPrecision" text-rendering="geometricPrecision" transform="matrix(1,0,0,1,112,429)"><rect width="193" height="49" x="-96.597" y="249.701" stroke="none" clip-path="url(#clipPath2)" rx="4" ry="4"/></g><g stroke-linecap="butt" stroke-miterlimit="1.45" shape-rendering="geometricPrecision" text-rendering="geometricPrecision" transform="matrix(1,0,0,1,112,429)"><rect width="193" height="49" x="-96.597" y="249.701" fill="none" clip-path="url(#clipPath2)" rx="4" ry="4"/><text x="-70.101" y="278.736" stroke="none" clip-path="url(#clipPath2)" font-family="sans-serif" xml:space="preserve">Generate chunk vertices</text></g><g fill="#F60" stroke="#F60" shape-rendering="geometricPrecision" text-rendering="geometricPrecision" transform="matrix(1,0,0,1,112,429)"><rect width="193" height="49" x="-96.597" y="328.701" stroke="none" clip-path="url(#clipPath2)" rx="4" ry="4"/></g><g stroke-linecap="butt" stroke-miterlimit="1.45" shape-rendering="geometricPrecision" text-rendering="geometricPrecision" transform="matrix(1,0,0,1,112,429)"><rect width="193" height="49" x="-96.597" y="328.701" fill="none" clip-path="url(#clipPath2)" rx="4" ry="4"/><text x="-72.389" y="357.736" stroke="none" clip-path="url(#clipPath2)" font-family="sans-serif" xml:space="preserve">Generate lightmap cache</text></g><g fill="#F60" stroke="#F60" shape-rendering="geometricPrecision" text-rendering="geometricPrecision" transform="matrix(1,0,0,1,112,429)"><rect width="193" height="49" x="-96.597" y="407.701" stroke="none" clip-path="url(#clipPath2)" rx="4" ry="4"/></g><g stroke-linecap="butt" stroke-miterlimit="1.45" shape-rendering="geometricPrecision" text-rendering="geometricPrecision" transform="matrix(1,0,0,1,112,429)"><rect width="193" height="49" x="-96.597" y="407.701" fill="none" clip-path="url(#clipPath2)" rx="4" ry="4"/><text x="-37.424" y="436.736" stroke="none" clip-path="url(#clipPath2)" font-family="sans-serif" xml:space="preserve">Render faces</text></g><g fill="#F60" stroke="#F60" shape-rendering="geometricPrecision" text-rendering="geometricPrecision" transform="matrix(1,0,0,1,112,429)"><rect width="193" height="49" x="-96.597" y="493.485" stroke="none" clip-path="url(#clipPath2)" rx="4" ry="4"/></g><g stroke-linecap="butt" stroke-miterlimit="1.45" shape-rendering="geometricPrecision" text-rendering="geometricPrecision" transform="matrix(1,0,0,1,112,429)"><rect width="193" height="49" x="-96.597" y="493.485" fill="none" clip-path="url(#clipPath2)" rx="4" ry="4"/><text x="-46.887" y="515.454" stroke="none" clip-path="url(#clipPath2)" font-family="sans-serif" xml:space="preserve">Generate bigger</text><text x="-73.872" y="529.587" stroke="none" clip-path="url(#clipPath2)" font-family="sans-serif" xml:space="preserve">cache for extended water</text></g><g fill="#F60" stroke="#F60" shape-rendering="geometricPrecision" text-rendering="geometricPrecision" transform="matrix(1,0,0,1,112,429)"><rect width="193" height="49" x="-96.597" y="565.587" stroke="none" clip-path="url(#clipPath2)" rx="4" ry="4"/></g><g stroke-linecap="butt" stroke-miterlimit="1.45" shape-rendering="geometricPrecision" text-rendering="geometricPrecision" transform="matrix(1,0,0,1,112,429)"><rect width="193" height="49" x="-96.597" y="565.587" fill="none" clip-path="url(#clipPath2)" rx="4" ry="4"/><text x="-67.535" y="594.622" stroke="none" clip-path="url(#clipPath2)" font-family="sans-serif" xml:space="preserve">Render extended water</text></g><g fill="#FC0" stroke="#FC0" shape-rendering="geometricPrecision" text-rendering="geometricPrecision" transform="matrix(1,0,0,1,112,429)"><rect width="193" height="49" x="289.5" y="-10.518" stroke="none" clip-path="url(#clipPath2)" rx="4" ry="4"/></g><g stroke-linecap="butt" stroke-miterlimit="1.45" shape-rendering="geometricPrecision" text-rendering="geometricPrecision" transform="matrix(1,0,0,1,112,429)"><rect width="193" height="49" x="289.5" y="-10.518" fill="none" clip-path="url(#clipPath2)" rx="4" ry="4"/><text x="338.416" y="18.517" stroke="none" clip-path="url(#clipPath2)" font-family="sans-serif" xml:space="preserve">Generate caches</text></g><g fill="#FC0" stroke="#FC0" shape-rendering="geometricPrecision" text-rendering="geometricPrecision" transform="matrix(1,0,0,1,112,429)"><rect width="193" height="49" x="289.5" y="80.092" stroke="none" clip-path="url(#clipPath2)" rx="4" ry="4"/></g><g stroke-linecap="butt" stroke-miterlimit="1.45" shape-rendering="geometricPrecision" text-rendering="geometricPrecision" transform="matrix(1,0,0,1,112,429)"><rect width="193" height="49" x="289.5" y="80.092" fill="none" clip-path="url(#clipPath2)" rx="4" ry="4"/><text x="325.177" y="109.127" stroke="none" clip-path="url(#clipPath2)" font-family="sans-serif" xml:space="preserve">Generate Scalar Field</text></g><g fill="#FC0" stroke="#FC0" shape-rendering="geometricPrecision" text-rendering="geometricPrecision" transform="matrix(1,0,0,1,112,429)"><rect width="193" height="49" x="289.5" y="170.701" stroke="none" clip-path="url(#clipPath2)" rx="4" ry="4"/></g><g stroke-linecap="butt" stroke-miterlimit="1.45" shape-rendering="geometricPrecision" text-rendering="geometricPrecision" transform="matrix(1,0,0,1,112,429)"><rect width="193" height="49" x="289.5" y="170.701" fill="none" clip-path="url(#clipPath2)" rx="4" ry="4"/><text x="315.995" y="199.736" stroke="none" clip-path="url(#clipPath2)" font-family="sans-serif" xml:space="preserve">Generate chunk vertices</text></g><g fill="#FC0" stroke="#FC0" shape-rendering="geometricPrecision" text-rendering="geometricPrecision" transform="matrix(1,0,0,1,112,429)"><rect width="193" height="49" x="289.5" y="249.701" stroke="none" clip-path="url(#clipPath2)" rx="4" ry="4"/></g><g stroke-linecap="butt" stroke-miterlimit="1.45" shape-rendering="geometricPrecision" text-rendering="geometricPrecision" transform="matrix(1,0,0,1,112,429)"><rect width="193" height="49" x="289.5" y="249.701" fill="none" clip-path="url(#clipPath2)" rx="4" ry="4"/><text x="313.707" y="278.736" stroke="none" clip-path="url(#clipPath2)" font-family="sans-serif" xml:space="preserve">Generate lightmap cache</text></g><g fill="#FC0" stroke="#FC0" shape-rendering="geometricPrecision" text-rendering="geometricPrecision" transform="matrix(1,0,0,1,112,429)"><rect width="193" height="49" x="289.5" y="328.701" stroke="none" clip-path="url(#clipPath2)" rx="4" ry="4"/></g><g stroke-linecap="butt" stroke-miterlimit="1.45" shape-rendering="geometricPrecision" text-rendering="geometricPrecision" transform="matrix(1,0,0,1,112,429)"><rect width="193" height="49" x="289.5" y="328.701" fill="none" clip-path="url(#clipPath2)" rx="4" ry="4"/><text x="348.673" y="357.736" stroke="none" clip-path="url(#clipPath2)" font-family="sans-serif" xml:space="preserve">Render faces</text></g><g fill="#FC0" stroke="#FC0" shape-rendering="geometricPrecision" text-rendering="geometricPrecision" transform="matrix(1,0,0,1,112,429)"><rect width="193" height="49" x="289.5" y="414.485" stroke="none" clip-path="url(#clipPath2)" rx="4" ry="4"/></g><g stroke-linecap="butt" stroke-miterlimit="1.45" shape-rendering="geometricPrecision" text-rendering="geometricPrecision" transform="matrix(1,0,0,1,112,429)"><rect width="193" height="49" x="289.5" y="414.485" fill="none" clip-path="url(#clipPath2)" rx="4" ry="4"/><text x="339.21" y="436.454" stroke="none" clip-path="url(#clipPath2)" font-family="sans-serif" xml:space="preserve">Generate bigger</text><text x="312.225" y="450.587" stroke="none" clip-path="url(#clipPath2)" font-family="sans-serif" xml:space="preserve">cache for extended water</text></g><g fill="#FC0" stroke="#FC0" shape-rendering="geometricPrecision" text-rendering="geometricPrecision" transform="matrix(1,0,0,1,112,429)"><rect width="193" height="49" x="289.5" y="486.587" stroke="none" clip-path="url(#clipPath2)" rx="4" ry="4"/></g><g stroke-linecap="butt" stroke-miterlimit="1.45" shape-rendering="geometricPrecision" text-rendering="geometricPrecision" transform="matrix(1,0,0,1,112,429)"><rect width="193" height="49" x="289.5" y="486.587" fill="none" clip-path="url(#clipPath2)" rx="4" ry="4"/><text x="318.562" y="515.622" stroke="none" clip-path="url(#clipPath2)" font-family="sans-serif" xml:space="preserve">Render extended water</text></g><g fill="#F60" stroke="#F60" shape-rendering="geometricPrecision" text-rendering="geometricPrecision" transform="matrix(1,0,0,1,112,429)"><rect width="162.967" height="30" x="52.017" y="-306.65" stroke="none" clip-path="url(#clipPath2)"/></g><g stroke-linecap="butt" stroke-miterlimit="1.45" shape-rendering="geometricPrecision" text-rendering="geometricPrecision" transform="matrix(1,0,0,1,112,429)"><rect width="162.967" height="30" x="52.017" y="-306.65" fill="none" clip-path="url(#clipPath2)"/><text x="80.534" y="-287.115" stroke="none" clip-path="url(#clipPath2)" font-family="sans-serif" xml:space="preserve">OVERRIDE_CHUNK</text></g><g fill="#FC0" stroke="#FC0" shape-rendering="geometricPrecision" text-rendering="geometricPrecision" transform="matrix(1,0,0,1,112,429)"><rect width="162.967" height="30" x="304.517" y="-306.65" stroke="none" clip-path="url(#clipPath2)"/></g><g stroke-linecap="butt" stroke-miterlimit="1.45" shape-rendering="geometricPrecision" text-rendering="geometricPrecision" transform="matrix(1,0,0,1,112,429)"><rect width="162.967" height="30" x="304.517" y="-306.65" fill="none" clip-path="url(#clipPath2)"/><text x="317.199" y="-287.115" stroke="none" clip-path="url(#clipPath2)" font-family="sans-serif" xml:space="preserve">COMBATIBILITY_CHUNK</text></g><g fill="#f0f" stroke="#f0f" shape-rendering="geometricPrecision" text-rendering="geometricPrecision" transform="matrix(1,0,0,1,112,429)"><rect width="162.967" height="30" x="557.016" y="-306.65" stroke="none" clip-path="url(#clipPath2)"/></g><g stroke-linecap="butt" stroke-miterlimit="1.45" shape-rendering="geometricPrecision" text-rendering="geometricPrecision" transform="matrix(1,0,0,1,112,429)"><rect width="162.967" height="30" x="557.016" y="-306.65" fill="none" clip-path="url(#clipPath2)"/><text x="591.719" y="-287.115" stroke="none" clip-path="url(#clipPath2)" font-family="sans-serif" xml:space="preserve">MODIFY_MODEL</text></g><g fill="#f0f" stroke="#f0f" shape-rendering="geometricPrecision" text-rendering="geometricPrecision" transform="matrix(1,0,0,1,112,429)"><rect width="193" height="49" x="675.596" y="-10.518" stroke="none" clip-path="url(#clipPath2)" rx="4" ry="4"/></g><g stroke-linecap="butt" stroke-miterlimit="1.45" shape-rendering="geometricPrecision" text-rendering="geometricPrecision" transform="matrix(1,0,0,1,112,429)"><rect width="193" height="49" x="675.596" y="-10.518" fill="none" clip-path="url(#clipPath2)" rx="4" ry="4"/><text x="708.045" y="11.451" stroke="none" clip-path="url(#clipPath2)" font-family="sans-serif" xml:space="preserve">Talk to fellfromthesky</text><text x="703.187" y="25.584" stroke="none" clip-path="url(#clipPath2)" font-family="sans-serif" xml:space="preserve">about how tf this works</text></g><g fill="#f0f" stroke="#f0f" shape-rendering="geometricPrecision" text-rendering="geometricPrecision" transform="matrix(1,0,0,1,112,429)"><rect width="193" height="49" x="675.596" y="80.092" stroke="none" clip-path="url(#clipPath2)" rx="4" ry="4"/></g><g stroke-linecap="butt" stroke-miterlimit="1.45" shape-rendering="geometricPrecision" text-rendering="geometricPrecision" transform="matrix(1,0,0,1,112,429)"><rect width="193" height="49" x="675.596" y="80.092" fill="none" clip-path="url(#clipPath2)" rx="4" ry="4"/><text x="704.066" y="109.127" stroke="none" clip-path="url(#clipPath2)" font-family="sans-serif" xml:space="preserve">Generate block vertices</text></g><g fill="#FC0" stroke="#FC0" shape-rendering="geometricPrecision" text-rendering="geometricPrecision" transform="matrix(1,0,0,1,112,429)"><rect width="965.193" height="77.986" x="-96.597" y="-413.301" stroke="none" clip-path="url(#clipPath2)"/><rect width="1" height="77.986" x="-96.597" y="-413.301" fill="#ff0" stroke="none" clip-path="url(#clipPath2)"/><rect width="963.193" height="1" x="-95.597" y="-413.301" fill="#ff0" stroke="none" clip-path="url(#clipPath2)"/><rect width="964.193" height="1" x="-95.597" y="-336.314" fill="#B28E00" stroke="none" clip-path="url(#clipPath2)"/><rect width="1" height="76.986" x="867.596" y="-413.301" fill="#B28E00" stroke="none" clip-path="url(#clipPath2)"/></g><g stroke-linecap="butt" stroke-miterlimit="1.45" font-family="sans-serif" shape-rendering="geometricPrecision" text-rendering="geometricPrecision"><text x="356.366" y="-369.772" stroke="none" clip-path="url(#clipPath2)" transform="matrix(1,0,0,1,112,429)" xml:space="preserve">Rendering</text></g><g fill="#FC0" stroke="#FC0" shape-rendering="geometricPrecision" text-rendering="geometricPrecision" transform="matrix(1,0,0,1,112,429)"><rect width="175" height="77.986" x="1073.628" y="-413.301" stroke="none" clip-path="url(#clipPath2)"/><rect width="1" height="77.986" x="1073.628" y="-413.301" fill="#ff0" stroke="none" clip-path="url(#clipPath2)"/><rect width="173" height="1" x="1074.628" y="-413.301" fill="#ff0" stroke="none" clip-path="url(#clipPath2)"/><rect width="174" height="1" x="1074.628" y="-336.314" fill="#B28E00" stroke="none" clip-path="url(#clipPath2)"/><rect width="1" height="76.986" x="1247.628" y="-413.301" fill="#B28E00" stroke="none" clip-path="url(#clipPath2)"/></g><g stroke-linecap="butt" stroke-miterlimit="1.45" font-family="sans-serif" shape-rendering="geometricPrecision" text-rendering="geometricPrecision"><text x="1132.827" y="-369.772" stroke="none" clip-path="url(#clipPath2)" transform="matrix(1,0,0,1,112,429)" xml:space="preserve">Collisions</text></g><g fill="#FC0" stroke="#FC0" shape-rendering="geometricPrecision" text-rendering="geometricPrecision" transform="matrix(1,0,0,1,112,429)"><rect width="175" height="44" x="1073.628" y="-111" stroke="none" clip-path="url(#clipPath2)" rx="4" ry="4"/></g><g stroke-linecap="butt" stroke-miterlimit="1.45" shape-rendering="geometricPrecision" text-rendering="geometricPrecision" transform="matrix(1,0,0,1,112,429)"><rect width="175" height="44" x="1073.628" y="-111" fill="none" clip-path="url(#clipPath2)" rx="4" ry="4"/><text x="1062.157" y="-84.465" stroke="none" clip-path="url(#clipPath2)" font-family="sans-serif" xml:space="preserve">Generate (&amp; cache?) block vertices</text></g><g fill="#f0f" stroke="#f0f" shape-rendering="geometricPrecision" text-rendering="geometricPrecision" transform="matrix(1,0,0,1,112,429)"><rect width="193" height="49" x="675.596" y="170.701" stroke="none" clip-path="url(#clipPath2)" rx="4" ry="4"/></g><g stroke-linecap="butt" stroke-miterlimit="1.45" shape-rendering="geometricPrecision" text-rendering="geometricPrecision" transform="matrix(1,0,0,1,112,429)"><rect width="193" height="49" x="675.596" y="170.701" fill="none" clip-path="url(#clipPath2)" rx="4" ry="4"/><text x="682.636" y="199.736" stroke="none" clip-path="url(#clipPath2)" font-family="sans-serif" xml:space="preserve">how will extended water work?</text><path fill="none" d="M133.5 -155.9673 L133.5 -121.4915" clip-path="url(#clipPath2)"/><path stroke="none" d="M133.5 -113.4915 L138.5 -125.4915 L133.5 -122.4915 L128.5 -125.4915 Z" clip-path="url(#clipPath2)"/><path fill="none" d="M386 -155.9673 L386 -119.0063" clip-path="url(#clipPath2)"/><path stroke="none" d="M386 -111.0063 L391 -123.0063 L386 -120.0063 L381 -123.0063 Z" clip-path="url(#clipPath2)"/><path fill="none" d="M638.5 -155.9673 L638.5 -119.0063" clip-path="url(#clipPath2)"/><path stroke="none" d="M638.5 -111.0063 L643.5 -123.0063 L638.5 -120.0063 L633.5 -123.0063 Z" clip-path="url(#clipPath2)"/><path fill="none" d="M101.6991 -64.4864 L38.0258 -15.4041" clip-path="url(#clipPath2)"/><path stroke="none" d="M31.6897 -10.52 L44.2464 -13.8862 L38.8178 -16.0147 L38.1412 -21.8062 Z" clip-path="url(#clipPath2)"/><path fill="none" d="M-0.0965 38.4769 L-0.0965 60.4708" clip-path="url(#clipPath2)"/><path stroke="none" d="M-0.0965 68.4708 L4.9035 56.4708 L-0.0965 59.4708 L-5.0965 56.4708 Z" clip-path="url(#clipPath2)"/><path fill="none" d="M-0.0965 117.4486 L-0.0965 151.0786" clip-path="url(#clipPath2)"/><path stroke="none" d="M-0.0965 159.0786 L4.9035 147.0786 L-0.0965 150.0786 L-5.0965 147.0786 Z" clip-path="url(#clipPath2)"/><path fill="none" d="M-0.0965 208.0578 L-0.0965 241.6879" clip-path="url(#clipPath2)"/><path stroke="none" d="M-0.0965 249.6879 L4.9035 237.6879 L-0.0965 240.6879 L-5.0965 237.6879 Z" clip-path="url(#clipPath2)"/><path fill="none" d="M-0.0965 298.6955 L-0.0965 320.6894" clip-path="url(#clipPath2)"/><path stroke="none" d="M-0.0965 328.6894 L4.9035 316.6894 L-0.0965 319.6894 L-5.0965 316.6894 Z" clip-path="url(#clipPath2)"/><path fill="none" d="M-0.0965 377.6955 L-0.0965 399.6894" clip-path="url(#clipPath2)"/><path stroke="none" d="M-0.0965 407.6894 L4.9035 395.6894 L-0.0965 398.6894 L-5.0965 395.6894 Z" clip-path="url(#clipPath2)"/><path fill="none" d="M-0.0965 456.7047 L-0.0965 485.479" clip-path="url(#clipPath2)"/><path stroke="none" d="M-0.0965 493.479 L4.9035 481.479 L-0.0965 484.479 L-5.0965 481.479 Z" clip-path="url(#clipPath2)"/><path fill="none" d="M-0.0965 542.4534 L-0.0965 557.5723" clip-path="url(#clipPath2)"/><path stroke="none" d="M-0.0965 565.5723 L4.9035 553.5723 L-0.0965 556.5723 L-5.0965 553.5723 Z" clip-path="url(#clipPath2)"/><path fill="none" d="M386 -67.0006 L386 -18.4945" clip-path="url(#clipPath2)"/><path stroke="none" d="M386 -10.4945 L391 -22.4945 L386 -19.4945 L381 -22.4945 Z" clip-path="url(#clipPath2)"/><path fill="none" d="M386 38.4486 L386 72.0786" clip-path="url(#clipPath2)"/><path stroke="none" d="M386 80.0786 L391 68.0786 L386 71.0786 L381 68.0786 Z" clip-path="url(#clipPath2)"/><path fill="none" d="M386 129.0578 L386 162.6879" clip-path="url(#clipPath2)"/><path stroke="none" d="M386 170.6879 L391 158.6879 L386 161.6879 L381 158.6879 Z" clip-path="url(#clipPath2)"/><path fill="none" d="M386 219.6955 L386 241.6894" clip-path="url(#clipPath2)"/><path stroke="none" d="M386 249.6894 L391 237.6894 L386 240.6894 L381 237.6894 Z" clip-path="url(#clipPath2)"/><path fill="none" d="M386 298.6955 L386 320.6894" clip-path="url(#clipPath2)"/><path stroke="none" d="M386 328.6894 L391 316.6894 L386 319.6894 L381 316.6894 Z" clip-path="url(#clipPath2)"/><path fill="none" d="M386 377.7047 L386 406.479" clip-path="url(#clipPath2)"/><path stroke="none" d="M386 414.479 L391 402.479 L386 405.479 L381 402.479 Z" clip-path="url(#clipPath2)"/><path fill="none" d="M386 463.4533 L386 478.5724" clip-path="url(#clipPath2)"/><path stroke="none" d="M386 486.5724 L391 474.5724 L386 477.5724 L381 474.5724 Z" clip-path="url(#clipPath2)"/><path fill="none" d="M133.5 -276.6504 L133.5 -208.0133" clip-path="url(#clipPath2)"/><path stroke="none" d="M133.5 -200.0133 L138.5 -212.0133 L133.5 -209.0133 L128.5 -212.0133 Z" clip-path="url(#clipPath2)"/><path fill="none" d="M386 -276.6504 L386 -208.0133" clip-path="url(#clipPath2)"/><path stroke="none" d="M386 -200.0133 L391 -212.0133 L386 -209.0133 L381 -212.0133 Z" clip-path="url(#clipPath2)"/><path fill="none" d="M638.5 -276.6504 L638.5 -208.0133" clip-path="url(#clipPath2)"/><path stroke="none" d="M638.5 -200.0133 L643.5 -212.0133 L638.5 -209.0133 L633.5 -212.0133 Z" clip-path="url(#clipPath2)"/><path fill="none" d="M667.0393 -67.0006 L733.9817 -15.3984" clip-path="url(#clipPath2)"/><path stroke="none" d="M740.3177 -10.5143 L733.8662 -21.8004 L733.1897 -16.0089 L727.7611 -13.8804 Z" clip-path="url(#clipPath2)"/></g></g></svg>