<svg xmlns="http://www.w3.org/2000/svg" xmlns:xlink="http://www.w3.org/1999/xlink" width="772" height="544" fill="#000" fill-opacity="1" stroke="#000" stroke-dasharray="none" stroke-dashoffset="0" stroke-linecap="square" stroke-linejoin="miter" stroke-miterlimit="10" stroke-opacity="1" stroke-width="1" color-interpolation="auto" color-rendering="auto" font-family="'Dialog'" font-size="12" font-style="normal" font-weight="normal" image-rendering="auto" shape-rendering="auto" text-rendering="auto"><g><defs id="defs1"><clipPath id="clipPath1" clipPathUnits="userSpaceOnUse"><path d="M0 0 L772 0 L772 544 L0 544 L0 0 Z"/></clipPath><clipPath id="clipPath2" clipPathUnits="userSpaceOnUse"><path d="M53 -5 L825 -5 L825 539 L53 539 L53 -5 Z"/></clipPath></defs><g fill="#fff" stroke="#fff" shape-rendering="geometricPrecision" text-rendering="geometricPrecision" transform="translate(-53,5)"><rect width="772" height="544" x="53" y="-5" stroke="none" clip-path="url(#clipPath2)"/></g><g fill="#FC0" stroke="#FC0" shape-rendering="geometricPrecision" text-rendering="geometricPrecision" transform="matrix(1,0,0,1,-53,5)"><rect width="171" height="30" x="312" y="10" stroke="none" clip-path="url(#clipPath2)" rx="4" ry="4"/></g><g stroke-linecap="butt" stroke-miterlimit="1.45" shape-rendering="geometricPrecision" text-rendering="geometricPrecision" transform="matrix(1,0,0,1,-53,5)"><rect width="171" height="30" x="312" y="10" fill="none" clip-path="url(#clipPath2)" rx="4" ry="4"/><text x="316.251" y="29.535" stroke="none" clip-path="url(#clipPath2)" font-family="sans-serif" xml:space="preserve">Rewrite Coremod for 1.13.2</text></g><g fill="#FC0" stroke="#FC0" shape-rendering="geometricPrecision" text-rendering="geometricPrecision" transform="matrix(1,0,0,1,-53,5)"><rect width="183" height="30" x="306" y="90" stroke="none" clip-path="url(#clipPath2)" rx="4" ry="4"/></g><g stroke-linecap="butt" stroke-miterlimit="1.45" shape-rendering="geometricPrecision" text-rendering="geometricPrecision" transform="matrix(1,0,0,1,-53,5)"><rect width="183" height="30" x="306" y="90" fill="none" clip-path="url(#clipPath2)" rx="4" ry="4"/><text x="312.601" y="109.535" stroke="none" clip-path="url(#clipPath2)" font-family="sans-serif" xml:space="preserve">Get something basic working</text></g><g fill="#FC0" stroke="#FC0" shape-rendering="geometricPrecision" text-rendering="geometricPrecision" transform="matrix(1,0,0,1,-53,5)"><rect width="142" height="30" x="326.5" y="175" stroke="none" clip-path="url(#clipPath2)" rx="4" ry="4"/></g><g stroke-linecap="butt" stroke-miterlimit="1.45" shape-rendering="geometricPrecision" text-rendering="geometricPrecision" transform="matrix(1,0,0,1,-53,5)"><rect width="142" height="30" x="326.5" y="175" fill="none" clip-path="url(#clipPath2)" rx="4" ry="4"/><text x="331.998" y="194.535" stroke="none" clip-path="url(#clipPath2)" font-family="sans-serif" xml:space="preserve">Add back OldNoCubes</text></g><g fill="#FC0" stroke="#FC0" shape-rendering="geometricPrecision" text-rendering="geometricPrecision" transform="matrix(1,0,0,1,-53,5)"><rect width="156.5" height="30" x="319.25" y="377" stroke="none" clip-path="url(#clipPath2)" rx="4" ry="4"/></g><g stroke-linecap="butt" stroke-miterlimit="1.45" shape-rendering="geometricPrecision" text-rendering="geometricPrecision" transform="matrix(1,0,0,1,-53,5)"><rect width="156.5" height="30" x="319.25" y="377" fill="none" clip-path="url(#clipPath2)" rx="4" ry="4"/><text x="324.085" y="396.535" stroke="none" clip-path="url(#clipPath2)" font-family="sans-serif" xml:space="preserve">Extended Fluid rendering</text></g><g fill="#FC0" stroke="#FC0" shape-rendering="geometricPrecision" text-rendering="geometricPrecision" transform="matrix(1,0,0,1,-53,5)"><rect width="183" height="30" x="68.5" y="377" stroke="none" clip-path="url(#clipPath2)" rx="4" ry="4"/></g><g stroke-linecap="butt" stroke-miterlimit="1.45" shape-rendering="geometricPrecision" text-rendering="geometricPrecision" transform="matrix(1,0,0,1,-53,5)"><rect width="183" height="30" x="68.5" y="377" fill="none" clip-path="url(#clipPath2)" rx="4" ry="4"/><text x="83.336" y="396.535" stroke="none" clip-path="url(#clipPath2)" font-family="sans-serif" xml:space="preserve">Fix shouldSideBeRendered</text></g><g fill="#FC0" stroke="#FC0" shape-rendering="geometricPrecision" text-rendering="geometricPrecision" transform="matrix(1,0,0,1,-53,5)"><rect width="276" height="30" x="534" y="68" stroke="none" clip-path="url(#clipPath2)" rx="4" ry="4"/></g><g stroke-linecap="butt" stroke-miterlimit="1.45" shape-rendering="geometricPrecision" text-rendering="geometricPrecision" transform="matrix(1,0,0,1,-53,5)"><rect width="276" height="30" x="534" y="68" fill="none" clip-path="url(#clipPath2)" rx="4" ry="4"/><text x="545.637" y="87.535" stroke="none" clip-path="url(#clipPath2)" font-family="sans-serif" xml:space="preserve">License is now GPLv3, update it everywhere</text></g><g fill="#FC0" stroke="#FC0" shape-rendering="geometricPrecision" text-rendering="geometricPrecision" transform="matrix(1,0,0,1,-53,5)"><rect width="196" height="30" x="534" y="377" stroke="none" clip-path="url(#clipPath2)" rx="4" ry="4"/></g><g stroke-linecap="butt" stroke-miterlimit="1.45" shape-rendering="geometricPrecision" text-rendering="geometricPrecision" transform="matrix(1,0,0,1,-53,5)"><rect width="196" height="30" x="534" y="377" fill="none" clip-path="url(#clipPath2)" rx="4" ry="4"/><text x="548.592" y="396.535" stroke="none" clip-path="url(#clipPath2)" font-family="sans-serif" xml:space="preserve">Fix BlockState parsing errors</text></g><g fill="#FC0" stroke="#FC0" shape-rendering="geometricPrecision" text-rendering="geometricPrecision" transform="matrix(1,0,0,1,-53,5)"><rect width="257" height="30" x="269" y="270" stroke="none" clip-path="url(#clipPath2)" rx="4" ry="4"/></g><g stroke-linecap="butt" stroke-miterlimit="1.45" shape-rendering="geometricPrecision" text-rendering="geometricPrecision" transform="matrix(1,0,0,1,-53,5)"><rect width="257" height="30" x="269" y="270" fill="none" clip-path="url(#clipPath2)" rx="4" ry="4"/><text x="279.557" y="289.535" stroke="none" clip-path="url(#clipPath2)" font-family="sans-serif" xml:space="preserve">oh god the gc kills, bring back the pools</text></g><g fill="#FC0" stroke="#FC0" shape-rendering="geometricPrecision" text-rendering="geometricPrecision" transform="matrix(1,0,0,1,-53,5)"><rect width="250" height="30" x="487" y="494" stroke="none" clip-path="url(#clipPath2)" rx="4" ry="4"/></g><g stroke-linecap="butt" stroke-miterlimit="1.45" shape-rendering="geometricPrecision" text-rendering="geometricPrecision" transform="matrix(1,0,0,1,-53,5)"><rect width="250" height="30" x="487" y="494" fill="none" clip-path="url(#clipPath2)" rx="4" ry="4"/><text x="497.147" y="513.535" stroke="none" clip-path="url(#clipPath2)" font-family="sans-serif" xml:space="preserve">Make the 1.13 and 1.14 NoCubes icons</text></g><g fill="#FC0" stroke="#FC0" shape-rendering="geometricPrecision" text-rendering="geometricPrecision" transform="matrix(1,0,0,1,-53,5)"><rect width="143.833" height="30" x="107.667" y="57" stroke="none" clip-path="url(#clipPath2)" rx="4" ry="4"/></g><g stroke-linecap="butt" stroke-miterlimit="1.45" shape-rendering="geometricPrecision" text-rendering="geometricPrecision" transform="matrix(1,0,0,1,-53,5)"><rect width="143.833" height="30" x="107.667" y="57" fill="none" clip-path="url(#clipPath2)" rx="4" ry="4"/><text x="123.474" y="76.535" stroke="none" clip-path="url(#clipPath2)" font-family="sans-serif" xml:space="preserve">Fix website discord</text></g><g fill="#FC0" stroke="#FC0" shape-rendering="geometricPrecision" text-rendering="geometricPrecision" transform="matrix(1,0,0,1,-53,5)"><rect width="250" height="47" x="68.5" y="477" stroke="none" clip-path="url(#clipPath2)" rx="4" ry="4"/></g><g stroke-linecap="butt" stroke-miterlimit="1.45" shape-rendering="geometricPrecision" text-rendering="geometricPrecision" transform="matrix(1,0,0,1,-53,5)"><rect width="250" height="47" x="68.5" y="477" fill="none" clip-path="url(#clipPath2)" rx="4" ry="4"/><text x="110.092" y="497.969" stroke="none" clip-path="url(#clipPath2)" font-family="sans-serif" xml:space="preserve">Fix BlockState parsing errors</text><text x="76.307" y="512.102" stroke="none" clip-path="url(#clipPath2)" font-family="sans-serif" xml:space="preserve">Catch &amp; continue, don’t catch and break</text><path fill="none" d="M397.5 39.9609 L397.5 81.9788" clip-path="url(#clipPath2)"/><path stroke="none" d="M397.5 89.9788 L402.5 77.9788 L397.5 80.9788 L392.5 77.9788 Z" clip-path="url(#clipPath2)"/><path fill="none" d="M397.5 119.9829 L397.5 166.9915" clip-path="url(#clipPath2)"/><path stroke="none" d="M397.5 174.9915 L402.5 162.9915 L397.5 165.9915 L392.5 162.9915 Z" clip-path="url(#clipPath2)"/><path fill="none" d="M468.5041 40.0027 L593.2026 66.3506" clip-path="url(#clipPath2)"/><path stroke="none" d="M601.0298 68.0045 L590.3227 60.6317 L592.2242 66.1439 L588.2554 70.4157 Z" clip-path="url(#clipPath2)"/><path fill="none" d="M397.5 204.9829 L397.5 262.0359" clip-path="url(#clipPath2)"/><path stroke="none" d="M397.5 270.0359 L402.5 258.0359 L397.5 261.0359 L392.5 258.0359 Z" clip-path="url(#clipPath2)"/><path fill="none" d="M430.3907 300.0077 L591.8668 373.6876" clip-path="url(#clipPath2)"/><path stroke="none" d="M599.145 377.0086 L590.3033 367.4783 L590.957 373.2725 L586.1522 376.576 Z" clip-path="url(#clipPath2)"/><path fill="none" d="M397.5 300.0208 L397.5 369.0444" clip-path="url(#clipPath2)"/><path stroke="none" d="M397.5 377.0444 L402.5 365.0444 L397.5 368.0444 L392.5 365.0444 Z" clip-path="url(#clipPath2)"/><path fill="none" d="M364.1885 300.0077 L200.5693 373.7225" clip-path="url(#clipPath2)"/><path stroke="none" d="M193.2754 377.0086 L206.2701 376.6381 L201.481 373.3117 L202.1624 367.5207 Z" clip-path="url(#clipPath2)"/><path fill="none" d="M411.8751 300.0117 L592.127 488.2468" clip-path="url(#clipPath2)"/><path stroke="none" d="M597.66 494.0249 L592.9718 481.8997 L591.4354 487.5246 L585.7492 488.8159 Z" clip-path="url(#clipPath2)"/><path fill="none" d="M327.938 40.0031 L256.329 55.4476" clip-path="url(#clipPath2)"/><path stroke="none" d="M248.5088 57.1342 L261.2933 59.4919 L257.3065 55.2368 L259.1849 49.7166 Z" clip-path="url(#clipPath2)"/><path fill="none" d="M383.2808 300.0208 L221.2628 471.1721" clip-path="url(#clipPath2)"/><path stroke="none" d="M215.7631 476.9819 L227.6438 471.7046 L221.9503 470.4459 L220.3816 464.8299 Z" clip-path="url(#clipPath2)"/></g></g></svg>