<svg xmlns="http://www.w3.org/2000/svg" xmlns:xlink="http://www.w3.org/1999/xlink" width="3652" height="2138" fill="#000" fill-opacity="1" stroke="#000" stroke-dasharray="none" stroke-dashoffset="0" stroke-linecap="square" stroke-linejoin="miter" stroke-miterlimit="10" stroke-opacity="1" stroke-width="1" color-interpolation="auto" color-rendering="auto" font-family="'Dialog'" font-size="12" font-style="normal" font-weight="normal" image-rendering="auto" shape-rendering="auto" text-rendering="auto"><g><defs id="defs1"><clipPath id="clipPath1" clipPathUnits="userSpaceOnUse"><path d="M0 0 L3652 0 L3652 2138 L0 2138 L0 0 Z"/></clipPath><clipPath id="clipPath2" clipPathUnits="userSpaceOnUse"><path d="M-766 -1055 L2886 -1055 L2886 1083 L-766 1083 L-766 -1055 Z"/></clipPath></defs><g fill="#fff" stroke="#fff" shape-rendering="geometricPrecision" text-rendering="geometricPrecision" transform="translate(766,1055)"><rect width="3652" height="2138" x="-766" y="-1055" stroke="none" clip-path="url(#clipPath2)"/></g><g fill="#FC0" stroke="#FC0" shape-rendering="geometricPrecision" text-rendering="geometricPrecision" transform="matrix(1,0,0,1,766,1055)"><rect width="965.193" height="77.986" x="-112.547" y="989.064" stroke="none" clip-path="url(#clipPath2)"/><rect width="1" height="77.986" x="-112.547" y="989.064" fill="#ff0" stroke="none" clip-path="url(#clipPath2)"/><rect width="963.193" height="1" x="-111.547" y="989.064" fill="#ff0" stroke="none" clip-path="url(#clipPath2)"/><rect width="964.193" height="1" x="-111.547" y="1066.05" fill="#B28E00" stroke="none" clip-path="url(#clipPath2)"/><rect width="1" height="76.986" x="851.646" y="989.064" fill="#B28E00" stroke="none" clip-path="url(#clipPath2)"/></g><g stroke-linecap="butt" stroke-miterlimit="1.45" font-family="sans-serif" shape-rendering="geometricPrecision" text-rendering="geometricPrecision"><text x="342.364" y="1032.771" stroke="none" clip-path="url(#clipPath2)" transform="matrix(1,0,0,1,766,1055)" xml:space="preserve">Rendering</text></g><g fill="#FC0" stroke="#FC0" shape-rendering="geometricPrecision" text-rendering="geometricPrecision" transform="matrix(1,0,0,1,766,1055)"><rect width="175" height="77.986" x="1057.678" y="989.064" stroke="none" clip-path="url(#clipPath2)"/><rect width="1" height="77.986" x="1057.678" y="989.064" fill="#ff0" stroke="none" clip-path="url(#clipPath2)"/><rect width="173" height="1" x="1058.678" y="989.064" fill="#ff0" stroke="none" clip-path="url(#clipPath2)"/><rect width="174" height="1" x="1058.678" y="1066.05" fill="#B28E00" stroke="none" clip-path="url(#clipPath2)"/><rect width="1" height="76.986" x="1231.678" y="989.064" fill="#B28E00" stroke="none" clip-path="url(#clipPath2)"/></g><g stroke-linecap="butt" stroke-miterlimit="1.45" font-family="sans-serif" shape-rendering="geometricPrecision" text-rendering="geometricPrecision"><text x="1119.502" y="1032.771" stroke="none" clip-path="url(#clipPath2)" transform="matrix(1,0,0,1,766,1055)" xml:space="preserve">Collisions</text></g><g fill="#FC0" stroke="#FC0" shape-rendering="geometricPrecision" text-rendering="geometricPrecision" transform="matrix(1,0,0,1,766,1055)"><rect width="965.193" height="77.986" x="-96.597" y="-1039.754" stroke="none" clip-path="url(#clipPath2)"/><rect width="1" height="77.986" x="-96.597" y="-1039.754" fill="#ff0" stroke="none" clip-path="url(#clipPath2)"/><rect width="963.193" height="1" x="-95.597" y="-1039.754" fill="#ff0" stroke="none" clip-path="url(#clipPath2)"/><rect width="964.193" height="1" x="-95.597" y="-962.768" fill="#B28E00" stroke="none" clip-path="url(#clipPath2)"/><rect width="1" height="76.986" x="867.596" y="-1039.754" fill="#B28E00" stroke="none" clip-path="url(#clipPath2)"/></g><g stroke-linecap="butt" stroke-miterlimit="1.45" font-family="sans-serif" shape-rendering="geometricPrecision" text-rendering="geometricPrecision"><text x="169.622" y="-996.047" stroke="none" clip-path="url(#clipPath2)" transform="matrix(1,0,0,1,766,1055)" xml:space="preserve">&quot;Vanilla model&quot; modded only by Forge or Liteloader or Partial Modification Loader</text></g><g fill="#f0f" stroke="#f0f" shape-rendering="geometricPrecision" text-rendering="geometricPrecision" transform="matrix(1,0,0,1,766,1055)"><rect width="965.193" height="157.081" x="-96.597" y="-705.696" stroke="none" clip-path="url(#clipPath2)"/><rect width="1" height="157.081" x="-96.597" y="-705.696" stroke="none" clip-path="url(#clipPath2)"/><rect width="963.193" height="1" x="-95.597" y="-705.696" stroke="none" clip-path="url(#clipPath2)"/><rect width="964.193" height="1" x="-95.597" y="-549.615" fill="#B200B2" stroke="none" clip-path="url(#clipPath2)"/><rect width="1" height="156.081" x="867.596" y="-705.696" fill="#B200B2" stroke="none" clip-path="url(#clipPath2)"/></g><g stroke-linecap="butt" stroke-miterlimit="1.45" font-family="sans-serif" shape-rendering="geometricPrecision" text-rendering="geometricPrecision"><text x="187.385" y="-673.896" stroke="none" clip-path="url(#clipPath2)" transform="matrix(1,0,0,1,766,1055)" xml:space="preserve">An Utility mod do a backup of the &quot;vanilla model&quot; to a new &quot;dummy model&quot;.</text><text x="269.897" y="-659.195" stroke="none" clip-path="url(#clipPath2)" transform="matrix(1,0,0,1,766,1055)" xml:space="preserve">For example let&apos;s name it &quot;The Drill Utilities&quot;</text><text x="281.117" y="-644.494" stroke="none" clip-path="url(#clipPath2)" transform="matrix(1,0,0,1,766,1055)" xml:space="preserve">&gt; This mod will always be loaded after :</text><text x="361.651" y="-629.792" stroke="none" clip-path="url(#clipPath2)" transform="matrix(1,0,0,1,766,1055)" xml:space="preserve">&gt;&gt; Forge</text><text x="348.969" y="-615.091" stroke="none" clip-path="url(#clipPath2)" transform="matrix(1,0,0,1,766,1055)" xml:space="preserve">&gt;&gt; LiteLoader</text><text x="306.286" y="-600.39" stroke="none" clip-path="url(#clipPath2)" transform="matrix(1,0,0,1,766,1055)" xml:space="preserve">&gt;&gt; Partial Modification Loader</text><text x="341.639" y="-585.689" stroke="none" clip-path="url(#clipPath2)" transform="matrix(1,0,0,1,766,1055)" xml:space="preserve">&gt;&gt; Or equivalent</text><text x="195.728" y="-570.988" stroke="none" clip-path="url(#clipPath2)" transform="matrix(1,0,0,1,766,1055)" xml:space="preserve">&gt; This mod will always be loaded before the things that are coming next</text></g><g fill="#3CC" stroke="#3CC" shape-rendering="geometricPrecision" text-rendering="geometricPrecision" transform="matrix(1,0,0,1,766,1055)"><rect width="434.649" height="77.986" x="-679.412" y="-1039.754" stroke="none" clip-path="url(#clipPath2)"/><rect width="1" height="77.986" x="-679.412" y="-1039.754" fill="#48FFFF" stroke="none" clip-path="url(#clipPath2)"/><rect width="432.649" height="1" x="-678.412" y="-1039.754" fill="#48FFFF" stroke="none" clip-path="url(#clipPath2)"/><rect width="433.649" height="1" x="-678.412" y="-962.768" fill="#238E8E" stroke="none" clip-path="url(#clipPath2)"/><rect width="1" height="76.986" x="-245.763" y="-1039.754" fill="#238E8E" stroke="none" clip-path="url(#clipPath2)"/></g><g stroke-linecap="butt" stroke-miterlimit="1.45" font-family="sans-serif" shape-rendering="geometricPrecision" text-rendering="geometricPrecision"><text x="-583.553" y="-996.047" stroke="none" clip-path="url(#clipPath2)" transform="matrix(1,0,0,1,766,1055)" xml:space="preserve">Let&apos;s create a &quot;Customisable Model Manager&quot;</text></g><g fill="#3CC" stroke="#3CC" shape-rendering="geometricPrecision" text-rendering="geometricPrecision" transform="matrix(1,0,0,1,766,1055)"><rect width="577.02" height="77.986" x="-750.598" y="-896.474" stroke="none" clip-path="url(#clipPath2)"/><rect width="1" height="77.986" x="-750.598" y="-896.474" fill="#48FFFF" stroke="none" clip-path="url(#clipPath2)"/><rect width="575.02" height="1" x="-749.598" y="-896.474" fill="#48FFFF" stroke="none" clip-path="url(#clipPath2)"/><rect width="576.02" height="1" x="-749.598" y="-819.487" fill="#238E8E" stroke="none" clip-path="url(#clipPath2)"/><rect width="1" height="76.986" x="-174.578" y="-896.474" fill="#238E8E" stroke="none" clip-path="url(#clipPath2)"/></g><g stroke-linecap="butt" stroke-miterlimit="1.45" font-family="sans-serif" shape-rendering="geometricPrecision" text-rendering="geometricPrecision"><text x="-735.961" y="-852.767" stroke="none" clip-path="url(#clipPath2)" transform="matrix(1,0,0,1,766,1055)" xml:space="preserve">Let&apos;s create a dummy model (everything null inside) trough the previous &quot;Cusomisable Model manager&quot;</text></g><g fill="#0CF" stroke="#0CF" shape-rendering="geometricPrecision" text-rendering="geometricPrecision" transform="matrix(1,0,0,1,766,1055)"><rect width="577.02" height="77.986" x="385.986" y="-221.087" stroke="none" clip-path="url(#clipPath2)"/><rect width="1" height="77.986" x="385.986" y="-221.087" fill="#0ff" stroke="none" clip-path="url(#clipPath2)"/><rect width="575.02" height="1" x="386.986" y="-221.087" fill="#0ff" stroke="none" clip-path="url(#clipPath2)"/><rect width="576.02" height="1" x="386.986" y="-144.1" fill="#008EB2" stroke="none" clip-path="url(#clipPath2)"/><rect width="1" height="76.986" x="962.006" y="-221.087" fill="#008EB2" stroke="none" clip-path="url(#clipPath2)"/></g><g stroke-linecap="butt" stroke-miterlimit="1.45" font-family="sans-serif" shape-rendering="geometricPrecision" text-rendering="geometricPrecision"><text x="492.255" y="-177.38" stroke="none" clip-path="url(#clipPath2)" transform="matrix(1,0,0,1,766,1055)" xml:space="preserve">Let&apos;s create a copy of the Vanilla model (that was previously backup)</text></g><g fill="#0CF" stroke="#0CF" shape-rendering="geometricPrecision" text-rendering="geometricPrecision" transform="matrix(1,0,0,1,766,1055)"><rect width="577.02" height="77.986" x="385.986" y="-12.726" stroke="none" clip-path="url(#clipPath2)"/><rect width="1" height="77.986" x="385.986" y="-12.726" fill="#0ff" stroke="none" clip-path="url(#clipPath2)"/><rect width="575.02" height="1" x="386.986" y="-12.726" fill="#0ff" stroke="none" clip-path="url(#clipPath2)"/><rect width="576.02" height="1" x="386.986" y="64.261" fill="#008EB2" stroke="none" clip-path="url(#clipPath2)"/><rect width="1" height="76.986" x="962.006" y="-12.726" fill="#008EB2" stroke="none" clip-path="url(#clipPath2)"/></g><g stroke-linecap="butt" stroke-miterlimit="1.45" font-family="sans-serif" shape-rendering="geometricPrecision" text-rendering="geometricPrecision"><text x="428.382" y="23.631" stroke="none" clip-path="url(#clipPath2)" transform="matrix(1,0,0,1,766,1055)" xml:space="preserve">A mod like No Cubes will only edit the vertices and peaks of this model trough the CTM mod.</text><text x="460.231" y="38.332" stroke="none" clip-path="url(#clipPath2)" transform="matrix(1,0,0,1,766,1055)" xml:space="preserve">All those customisation will be stored into a new &quot;dummy model&quot; from &quot;The Drill&quot;.</text></g><g fill="#0CF" stroke="#0CF" shape-rendering="geometricPrecision" text-rendering="geometricPrecision" transform="matrix(1,0,0,1,766,1055)"><rect width="577.02" height="102.608" x="97.49" y="-448.466" stroke="none" clip-path="url(#clipPath2)"/><rect width="1" height="102.608" x="97.49" y="-448.466" fill="#0ff" stroke="none" clip-path="url(#clipPath2)"/><rect width="575.02" height="1" x="98.49" y="-448.466" fill="#0ff" stroke="none" clip-path="url(#clipPath2)"/><rect width="576.02" height="1" x="98.49" y="-346.858" fill="#008EB2" stroke="none" clip-path="url(#clipPath2)"/><rect width="1" height="101.608" x="673.51" y="-448.466" fill="#008EB2" stroke="none" clip-path="url(#clipPath2)"/></g><g stroke-linecap="butt" stroke-miterlimit="1.45" font-family="sans-serif" shape-rendering="geometricPrecision" text-rendering="geometricPrecision"><text x="230.917" y="-429.201" stroke="none" clip-path="url(#clipPath2)" transform="matrix(1,0,0,1,766,1055)" xml:space="preserve">Examples for the following magical things that will happen.</text><text x="162.559" y="-414.5" stroke="none" clip-path="url(#clipPath2)" transform="matrix(1,0,0,1,766,1055)" xml:space="preserve">For this example we will take the models of those like grass or the ones of the fluids.</text><text x="217.927" y="-399.798" stroke="none" clip-path="url(#clipPath2)" transform="matrix(1,0,0,1,766,1055)" xml:space="preserve">By fluids I mean air, water, lava, or equivalent from other mods.</text><text x="320.976" y="-385.097" stroke="none" clip-path="url(#clipPath2)" transform="matrix(1,0,0,1,766,1055)" xml:space="preserve">Now we take two mods :</text><text x="272.437" y="-370.396" stroke="none" clip-path="url(#clipPath2)" transform="matrix(1,0,0,1,766,1055)" xml:space="preserve">&gt; The Seasons Mod by The_WeatherPony</text><text x="285.113" y="-355.695" stroke="none" clip-path="url(#clipPath2)" transform="matrix(1,0,0,1,766,1055)" xml:space="preserve">&gt; The No Cubes mod by a lot of guys.</text></g><g fill="#0CF" stroke="#0CF" shape-rendering="geometricPrecision" text-rendering="geometricPrecision" transform="matrix(1,0,0,1,766,1055)"><rect width="577.02" height="77.986" x="-266.114" y="-12.726" stroke="none" clip-path="url(#clipPath2)"/><rect width="1" height="77.986" x="-266.114" y="-12.726" fill="#0ff" stroke="none" clip-path="url(#clipPath2)"/><rect width="575.02" height="1" x="-265.114" y="-12.726" fill="#0ff" stroke="none" clip-path="url(#clipPath2)"/><rect width="576.02" height="1" x="-265.114" y="64.261" fill="#008EB2" stroke="none" clip-path="url(#clipPath2)"/><rect width="1" height="76.986" x="309.906" y="-12.726" fill="#008EB2" stroke="none" clip-path="url(#clipPath2)"/></g><g stroke-linecap="butt" stroke-miterlimit="1.45" font-family="sans-serif" shape-rendering="geometricPrecision" text-rendering="geometricPrecision"><text x="-203.371" y="23.631" stroke="none" clip-path="url(#clipPath2)" transform="matrix(1,0,0,1,766,1055)" xml:space="preserve">A mod like The Seasons mod will firstly only edit the light / color / opcity of the model.</text><text x="-191.869" y="38.332" stroke="none" clip-path="url(#clipPath2)" transform="matrix(1,0,0,1,766,1055)" xml:space="preserve">All those customisation will be stored into a new &quot;dummy model&quot; from &quot;The Drill&quot;.</text></g><g fill="#0CF" stroke="#0CF" shape-rendering="geometricPrecision" text-rendering="geometricPrecision" transform="matrix(1,0,0,1,766,1055)"><rect width="577.02" height="77.986" x="-248.165" y="-218.285" stroke="none" clip-path="url(#clipPath2)"/><rect width="1" height="77.986" x="-248.165" y="-218.285" fill="#0ff" stroke="none" clip-path="url(#clipPath2)"/><rect width="575.02" height="1" x="-247.165" y="-218.285" fill="#0ff" stroke="none" clip-path="url(#clipPath2)"/><rect width="576.02" height="1" x="-247.165" y="-141.298" fill="#008EB2" stroke="none" clip-path="url(#clipPath2)"/><rect width="1" height="76.986" x="327.854" y="-218.285" fill="#008EB2" stroke="none" clip-path="url(#clipPath2)"/></g><g stroke-linecap="butt" stroke-miterlimit="1.45" font-family="sans-serif" shape-rendering="geometricPrecision" text-rendering="geometricPrecision"><text x="-141.897" y="-174.578" stroke="none" clip-path="url(#clipPath2)" transform="matrix(1,0,0,1,766,1055)" xml:space="preserve">Let&apos;s create a copy of the Vanilla model (that was previously backup)</text></g><g fill="#0CF" stroke="#0CF" shape-rendering="geometricPrecision" text-rendering="geometricPrecision" transform="matrix(1,0,0,1,766,1055)"><rect width="923.279" height="77.986" x="-112.547" y="116.689" stroke="none" clip-path="url(#clipPath2)"/><rect width="1" height="77.986" x="-112.547" y="116.689" fill="#0ff" stroke="none" clip-path="url(#clipPath2)"/><rect width="921.279" height="1" x="-111.547" y="116.689" fill="#0ff" stroke="none" clip-path="url(#clipPath2)"/><rect width="922.279" height="1" x="-111.547" y="193.675" fill="#008EB2" stroke="none" clip-path="url(#clipPath2)"/><rect width="1" height="76.986" x="809.733" y="116.689" fill="#008EB2" stroke="none" clip-path="url(#clipPath2)"/></g><g stroke-linecap="butt" stroke-miterlimit="1.45" font-family="sans-serif" shape-rendering="geometricPrecision" text-rendering="geometricPrecision"><text x="-51.741" y="160.396" stroke="none" clip-path="url(#clipPath2)" transform="matrix(1,0,0,1,766,1055)" xml:space="preserve">Now let&apos;s create a new &quot;dummy&quot; model (trough The Drill) that will be a combination of those previous &quot;dummy&quot; models (see the lines and them arrows).</text></g><g fill="#0CF" stroke="#0CF" shape-rendering="geometricPrecision" text-rendering="geometricPrecision" transform="matrix(1,0,0,1,766,1055)"><rect width="923.279" height="77.986" x="-112.547" y="264.234" stroke="none" clip-path="url(#clipPath2)"/><rect width="1" height="77.986" x="-112.547" y="264.234" fill="#0ff" stroke="none" clip-path="url(#clipPath2)"/><rect width="921.279" height="1" x="-111.547" y="264.234" fill="#0ff" stroke="none" clip-path="url(#clipPath2)"/><rect width="922.279" height="1" x="-111.547" y="341.22" fill="#008EB2" stroke="none" clip-path="url(#clipPath2)"/><rect width="1" height="76.986" x="809.733" y="264.234" fill="#008EB2" stroke="none" clip-path="url(#clipPath2)"/></g><g stroke-linecap="butt" stroke-miterlimit="1.45" font-family="sans-serif" shape-rendering="geometricPrecision" text-rendering="geometricPrecision"><text x="147.328" y="300.591" stroke="none" clip-path="url(#clipPath2)" transform="matrix(1,0,0,1,766,1055)" xml:space="preserve">Now we MUST edit the light / level according to the position of light sources.</text><text x="251.455" y="315.292" stroke="none" clip-path="url(#clipPath2)" transform="matrix(1,0,0,1,766,1055)" xml:space="preserve">All of that into a new &quot;dummy model&quot;</text></g><g fill="#936" stroke="#936" shape-rendering="geometricPrecision" text-rendering="geometricPrecision" transform="matrix(1,0,0,1,766,1055)"><rect width="923.279" height="77.986" x="-112.547" y="411.779" stroke="none" clip-path="url(#clipPath2)"/><rect width="1" height="77.986" x="-112.547" y="411.779" fill="#DA4891" stroke="none" clip-path="url(#clipPath2)"/><rect width="921.279" height="1" x="-111.547" y="411.779" fill="#DA4891" stroke="none" clip-path="url(#clipPath2)"/><rect width="922.279" height="1" x="-111.547" y="488.765" fill="#6B2347" stroke="none" clip-path="url(#clipPath2)"/><rect width="1" height="76.986" x="809.733" y="411.779" fill="#6B2347" stroke="none" clip-path="url(#clipPath2)"/></g><g stroke-linecap="butt" stroke-miterlimit="1.45" font-family="sans-serif" shape-rendering="geometricPrecision" text-rendering="geometricPrecision"><text x="219.692" y="455.486" stroke="none" clip-path="url(#clipPath2)" transform="matrix(1,0,0,1,766,1055)" xml:space="preserve">Now we say that the final model is quite finished.</text></g><g fill="#0CF" stroke="#0CF" shape-rendering="geometricPrecision" text-rendering="geometricPrecision" transform="matrix(1,0,0,1,766,1055)"><rect width="923.279" height="77.986" x="650.301" y="587.451" stroke="none" clip-path="url(#clipPath2)"/><rect width="1" height="77.986" x="650.301" y="587.451" fill="#0ff" stroke="none" clip-path="url(#clipPath2)"/><rect width="921.279" height="1" x="651.301" y="587.451" fill="#0ff" stroke="none" clip-path="url(#clipPath2)"/><rect width="922.279" height="1" x="651.301" y="664.437" fill="#008EB2" stroke="none" clip-path="url(#clipPath2)"/><rect width="1" height="76.986" x="1572.581" y="587.451" fill="#008EB2" stroke="none" clip-path="url(#clipPath2)"/></g><g stroke-linecap="butt" stroke-miterlimit="1.45" font-family="sans-serif" shape-rendering="geometricPrecision" text-rendering="geometricPrecision"><text x="855.456" y="623.807" stroke="none" clip-path="url(#clipPath2)" transform="matrix(1,0,0,1,766,1055)" xml:space="preserve">Now take the vertices and peaks and of the final model and use them for the doing the collisions.</text><text x="974.87" y="638.508" stroke="none" clip-path="url(#clipPath2)" transform="matrix(1,0,0,1,766,1055)" xml:space="preserve">(Like it was done by a mod like No Cubes in 1.7.10)</text></g><g fill="#9C0" stroke="#9C0" shape-rendering="geometricPrecision" text-rendering="geometricPrecision" transform="matrix(1,0,0,1,766,1055)"><rect width="577.02" height="77.986" x="1600.291" y="-448.466" stroke="none" clip-path="url(#clipPath2)"/><rect width="1" height="77.986" x="1600.291" y="-448.466" fill="#DAFF00" stroke="none" clip-path="url(#clipPath2)"/><rect width="575.02" height="1" x="1601.291" y="-448.466" fill="#DAFF00" stroke="none" clip-path="url(#clipPath2)"/><rect width="576.02" height="1" x="1601.291" y="-371.479" fill="#6B8E00" stroke="none" clip-path="url(#clipPath2)"/><rect width="1" height="76.986" x="2176.311" y="-448.466" fill="#6B8E00" stroke="none" clip-path="url(#clipPath2)"/></g><g stroke-linecap="butt" stroke-miterlimit="1.45" font-family="sans-serif" shape-rendering="geometricPrecision" text-rendering="geometricPrecision"><text x="1733.718" y="-434.161" stroke="none" clip-path="url(#clipPath2)" transform="matrix(1,0,0,1,766,1055)" xml:space="preserve">Examples for the following magical things that will happen.</text><text x="1716.389" y="-419.46" stroke="none" clip-path="url(#clipPath2)" transform="matrix(1,0,0,1,766,1055)" xml:space="preserve">Only for a model that will not be customised by mods like those :</text><text x="1771.9" y="-404.759" stroke="none" clip-path="url(#clipPath2)" transform="matrix(1,0,0,1,766,1055)" xml:space="preserve">&gt; The Seasons Mod by The_Weather_Pony</text><text x="1787.914" y="-390.058" stroke="none" clip-path="url(#clipPath2)" transform="matrix(1,0,0,1,766,1055)" xml:space="preserve">&gt; The No Cubes mod by a lot of guys.</text><text x="1786.417" y="-375.356" stroke="none" clip-path="url(#clipPath2)" transform="matrix(1,0,0,1,766,1055)" xml:space="preserve">So models like those from the furnace.</text></g><g fill="#9C0" stroke="#9C0" shape-rendering="geometricPrecision" text-rendering="geometricPrecision" transform="matrix(1,0,0,1,766,1055)"><rect width="577.02" height="77.986" x="1600.291" y="-221.087" stroke="none" clip-path="url(#clipPath2)"/><rect width="1" height="77.986" x="1600.291" y="-221.087" fill="#DAFF00" stroke="none" clip-path="url(#clipPath2)"/><rect width="575.02" height="1" x="1601.291" y="-221.087" fill="#DAFF00" stroke="none" clip-path="url(#clipPath2)"/><rect width="576.02" height="1" x="1601.291" y="-144.1" fill="#6B8E00" stroke="none" clip-path="url(#clipPath2)"/><rect width="1" height="76.986" x="2176.311" y="-221.087" fill="#6B8E00" stroke="none" clip-path="url(#clipPath2)"/></g><g stroke-linecap="butt" stroke-miterlimit="1.45" font-family="sans-serif" shape-rendering="geometricPrecision" text-rendering="geometricPrecision"><text x="1664.047" y="-184.73" stroke="none" clip-path="url(#clipPath2)" transform="matrix(1,0,0,1,766,1055)" xml:space="preserve">The VANILLA MODEL is succesfully kept like it was without any more customisation.</text><text x="1824.11" y="-170.029" stroke="none" clip-path="url(#clipPath2)" transform="matrix(1,0,0,1,766,1055)" xml:space="preserve">Without the use of CTM.</text></g><g fill="#F90" stroke="#F90" shape-rendering="geometricPrecision" text-rendering="geometricPrecision" transform="matrix(1,0,0,1,766,1055)"><rect width="577.02" height="77.986" x="2289.666" y="-448.466" stroke="none" clip-path="url(#clipPath2)"/><rect width="1" height="77.986" x="2289.666" y="-448.466" fill="#FFDA00" stroke="none" clip-path="url(#clipPath2)"/><rect width="575.02" height="1" x="2290.666" y="-448.466" fill="#FFDA00" stroke="none" clip-path="url(#clipPath2)"/><rect width="576.02" height="1" x="2290.666" y="-371.479" fill="#B26B00" stroke="none" clip-path="url(#clipPath2)"/><rect width="1" height="76.986" x="2865.686" y="-448.466" fill="#B26B00" stroke="none" clip-path="url(#clipPath2)"/></g><g stroke-linecap="butt" stroke-miterlimit="1.45" font-family="sans-serif" shape-rendering="geometricPrecision" text-rendering="geometricPrecision"><text x="2423.093" y="-434.161" stroke="none" clip-path="url(#clipPath2)" transform="matrix(1,0,0,1,766,1055)" xml:space="preserve">Examples for the following magical things that will happen.</text><text x="2481.479" y="-419.46" stroke="none" clip-path="url(#clipPath2)" transform="matrix(1,0,0,1,766,1055)" xml:space="preserve">For a model from a MOD like those :</text><text x="2522.84" y="-404.759" stroke="none" clip-path="url(#clipPath2)" transform="matrix(1,0,0,1,766,1055)" xml:space="preserve">&gt; Carpenter&apos;s Blocks</text><text x="2526.323" y="-390.058" stroke="none" clip-path="url(#clipPath2)" transform="matrix(1,0,0,1,766,1055)" xml:space="preserve">&gt; Architecture Craft</text><text x="2545.328" y="-375.356" stroke="none" clip-path="url(#clipPath2)" transform="matrix(1,0,0,1,766,1055)" xml:space="preserve">&gt; BiblioCraft</text></g><g fill="#F90" stroke="#F90" shape-rendering="geometricPrecision" text-rendering="geometricPrecision" transform="matrix(1,0,0,1,766,1055)"><rect width="577.02" height="77.986" x="2289.666" y="-221.087" stroke="none" clip-path="url(#clipPath2)"/><rect width="1" height="77.986" x="2289.666" y="-221.087" fill="#FFDA00" stroke="none" clip-path="url(#clipPath2)"/><rect width="575.02" height="1" x="2290.666" y="-221.087" fill="#FFDA00" stroke="none" clip-path="url(#clipPath2)"/><rect width="576.02" height="1" x="2290.666" y="-144.1" fill="#B26B00" stroke="none" clip-path="url(#clipPath2)"/><rect width="1" height="76.986" x="2865.686" y="-221.087" fill="#B26B00" stroke="none" clip-path="url(#clipPath2)"/></g><g stroke-linecap="butt" stroke-miterlimit="1.45" font-family="sans-serif" shape-rendering="geometricPrecision" text-rendering="geometricPrecision"><text x="2312.365" y="-192.081" stroke="none" clip-path="url(#clipPath2)" transform="matrix(1,0,0,1,766,1055)" xml:space="preserve">Take the code from 1.6.4 / 1.7.10 of this mod if it wasnt updated to more recent version of the game.</text><text x="2287.867" y="-177.38" stroke="none" clip-path="url(#clipPath2)" transform="matrix(1,0,0,1,766,1055)" xml:space="preserve">Easily convert the Java code from 1.6.4 / 1.7.10 to code that will work with a &quot;Custom Model&quot; fromt &quot;The drill&quot;.</text><text x="2513.485" y="-162.679" stroke="none" clip-path="url(#clipPath2)" transform="matrix(1,0,0,1,766,1055)" xml:space="preserve">Without the use of CTM.</text></g><g fill="#0CF" stroke="#0CF" shape-rendering="geometricPrecision" text-rendering="geometricPrecision" transform="matrix(1,0,0,1,766,1055)"><rect width="453.269" height="59.355" x="155.42" y="-315.858" stroke="none" clip-path="url(#clipPath2)"/><rect width="1" height="59.355" x="155.42" y="-315.858" fill="#0ff" stroke="none" clip-path="url(#clipPath2)"/><rect width="451.269" height="1" x="156.42" y="-315.858" fill="#0ff" stroke="none" clip-path="url(#clipPath2)"/><rect width="452.269" height="1" x="156.42" y="-257.502" fill="#008EB2" stroke="none" clip-path="url(#clipPath2)"/><rect width="1" height="58.355" x="607.688" y="-315.858" fill="#008EB2" stroke="none" clip-path="url(#clipPath2)"/></g><g stroke-linecap="butt" stroke-miterlimit="1.45" font-family="sans-serif" shape-rendering="geometricPrecision" text-rendering="geometricPrecision"><text x="191.967" y="-288.817" stroke="none" clip-path="url(#clipPath2)" transform="matrix(1,0,0,1,766,1055)" xml:space="preserve">CTM will be USED here to help the customisation of those next models.</text><text x="263.862" y="-274.116" stroke="none" clip-path="url(#clipPath2)" transform="matrix(1,0,0,1,766,1055)" xml:space="preserve">Only to get the XYZ pos if it&apos;s still necessary.</text></g><g fill="#936" stroke="#936" shape-rendering="geometricPrecision" text-rendering="geometricPrecision" transform="matrix(1,0,0,1,766,1055)"><rect width="923.279" height="77.986" x="-112.547" y="754.445" stroke="none" clip-path="url(#clipPath2)"/><rect width="1" height="77.986" x="-112.547" y="754.445" fill="#DA4891" stroke="none" clip-path="url(#clipPath2)"/><rect width="921.279" height="1" x="-111.547" y="754.445" fill="#DA4891" stroke="none" clip-path="url(#clipPath2)"/><rect width="922.279" height="1" x="-111.547" y="831.431" fill="#6B2347" stroke="none" clip-path="url(#clipPath2)"/><rect width="1" height="76.986" x="809.733" y="754.445" fill="#6B2347" stroke="none" clip-path="url(#clipPath2)"/></g><g stroke-linecap="butt" stroke-miterlimit="1.45" font-family="sans-serif" shape-rendering="geometricPrecision" text-rendering="geometricPrecision"><text x="118.389" y="790.801" stroke="none" clip-path="url(#clipPath2)" transform="matrix(1,0,0,1,766,1055)" xml:space="preserve">A part of the cache created by all of those &quot;dummy models&quot; will be kept for other mods.</text><text x="60.856" y="805.503" stroke="none" clip-path="url(#clipPath2)" transform="matrix(1,0,0,1,766,1055)" xml:space="preserve">&quot;dummy models&quot; mean models that are instance of a &quot;Customisable model&quot; writen partially trough &quot;The drill&quot;.</text></g><g fill="#F9C" stroke="#F9C" shape-rendering="geometricPrecision" text-rendering="geometricPrecision" transform="matrix(1,0,0,1,766,1055)"><rect width="577.02" height="77.986" x="848.89" y="-436.155" stroke="none" clip-path="url(#clipPath2)"/><rect width="1" height="77.986" x="848.89" y="-436.155" fill="#FFDAFF" stroke="none" clip-path="url(#clipPath2)"/><rect width="575.02" height="1" x="849.89" y="-436.155" fill="#FFDAFF" stroke="none" clip-path="url(#clipPath2)"/><rect width="576.02" height="1" x="849.89" y="-359.168" fill="#B26B8E" stroke="none" clip-path="url(#clipPath2)"/><rect width="1" height="76.986" x="1424.91" y="-436.155" fill="#B26B8E" stroke="none" clip-path="url(#clipPath2)"/></g><g stroke-linecap="butt" stroke-miterlimit="1.45" font-family="sans-serif" shape-rendering="geometricPrecision" text-rendering="geometricPrecision"><text x="874.288" y="-407.149" stroke="none" clip-path="url(#clipPath2)" transform="matrix(1,0,0,1,766,1055)" xml:space="preserve">CTM will not be necessary if we know how to replace all the dynamic code (if statements, for loops)</text><text x="881.926" y="-392.448" stroke="none" clip-path="url(#clipPath2)" transform="matrix(1,0,0,1,766,1055)" xml:space="preserve">by something more static and that we will equilibrate the usage CPU and the usage of the GPU,</text><text x="860.606" y="-377.747" stroke="none" clip-path="url(#clipPath2)" transform="matrix(1,0,0,1,766,1055)" xml:space="preserve">depending on the power of the CPU or GPU (Nvidia GPU is more powerfull than Intel GPU for example).</text><path fill="none" d="M386 -961.7675 L386 -713.7029" clip-path="url(#clipPath2)" transform="matrix(1,0,0,1,766,1055)"/><path stroke="none" d="M386 -705.7029 L391 -717.7029 L386 -714.7029 L381 -717.7029 Z" clip-path="url(#clipPath2)" transform="matrix(1,0,0,1,766,1055)"/><path fill="none" d="M-462.0878 -961.7574 L-462.0878 -904.4572" clip-path="url(#clipPath2)" transform="matrix(1,0,0,1,766,1055)"/><path stroke="none" d="M-462.0878 -896.4572 L-457.0878 -908.4572 L-462.0878 -905.4572 L-467.0878 -908.4572 Z" clip-path="url(#clipPath2)" transform="matrix(1,0,0,1,766,1055)"/><path fill="none" d="M-318.5226 -818.491 L89.1003 -707.7881" clip-path="url(#clipPath2)" transform="matrix(1,0,0,1,766,1055)"/><path stroke="none" d="M96.8206 -705.6915 L86.5505 -713.6617 L88.1352 -708.0502 L83.9297 -704.0113 Z" clip-path="url(#clipPath2)" transform="matrix(1,0,0,1,766,1055)"/><path fill="none" d="M674.4962 -143.1021 L674.4962 -20.7255" clip-path="url(#clipPath2)" transform="matrix(1,0,0,1,766,1055)"/><path stroke="none" d="M674.4962 -12.7255 L679.4962 -24.7255 L674.4962 -21.7255 L669.4962 -24.7255 Z" clip-path="url(#clipPath2)" transform="matrix(1,0,0,1,766,1055)"/><path fill="none" d="M386 -548.6287 L386 -456.4519" clip-path="url(#clipPath2)" transform="matrix(1,0,0,1,766,1055)"/><path stroke="none" d="M386 -448.4519 L391 -460.4519 L386 -457.4519 L381 -460.4519 Z" clip-path="url(#clipPath2)" transform="matrix(1,0,0,1,766,1055)"/><path fill="none" d="M36.942 -140.3227 L26.4976 -20.706" clip-path="url(#clipPath2)" transform="matrix(1,0,0,1,766,1055)"/><path stroke="none" d="M25.8018 -12.7363 L31.8266 -24.2559 L26.5846 -21.7022 L21.8645 -25.1258 Z" clip-path="url(#clipPath2)" transform="matrix(1,0,0,1,766,1055)"/><path fill="none" d="M120.8598 65.2721 L243.2242 113.7443" clip-path="url(#clipPath2)" transform="matrix(1,0,0,1,766,1055)"/><path stroke="none" d="M250.6619 116.6906 L241.3468 107.6226 L242.2945 113.3761 L237.6639 116.9198 Z" clip-path="url(#clipPath2)" transform="matrix(1,0,0,1,766,1055)"/><path fill="none" d="M576.4224 65.2721 L454.5681 113.7342" clip-path="url(#clipPath2)" transform="matrix(1,0,0,1,766,1055)"/><path stroke="none" d="M447.1344 116.6906 L460.1327 116.9021 L455.4973 113.3647 L456.4372 107.61 Z" clip-path="url(#clipPath2)" transform="matrix(1,0,0,1,766,1055)"/><path fill="none" d="M201.0438 -548.6042 L-580.1478 -216.83 L-646.6609 -105.2596 L-462.0878 317.4205 L-120.5916 311.4453" clip-path="url(#clipPath2)" transform="matrix(1,0,0,1,766,1055)"/><path stroke="none" d="M-112.5928 311.3053 L-124.6784 306.516 L-121.5914 311.4628 L-124.5035 316.5145 Z" clip-path="url(#clipPath2)" transform="matrix(1,0,0,1,766,1055)"/><path fill="none" d="M349.0931 194.6937 L349.0931 256.2495" clip-path="url(#clipPath2)" transform="matrix(1,0,0,1,766,1055)"/><path stroke="none" d="M349.0931 264.2495 L354.0931 252.2495 L349.0931 255.2495 L344.0931 252.2495 Z" clip-path="url(#clipPath2)" transform="matrix(1,0,0,1,766,1055)"/><path fill="none" d="M349.0931 342.2387 L349.0931 403.7944" clip-path="url(#clipPath2)" transform="matrix(1,0,0,1,766,1055)"/><path stroke="none" d="M349.0931 411.7944 L354.0931 399.7944 L349.0931 402.7944 L344.0931 399.7944 Z" clip-path="url(#clipPath2)" transform="matrix(1,0,0,1,766,1055)"/><path fill="none" d="M518.4337 489.7686 L934.794 585.6496" clip-path="url(#clipPath2)" transform="matrix(1,0,0,1,766,1055)"/><path stroke="none" d="M942.59 587.4449 L932.0181 579.8795 L933.8195 585.4252 L929.774 589.6245 Z" clip-path="url(#clipPath2)" transform="matrix(1,0,0,1,766,1055)"/><path fill="none" d="M1115.1664 665.4186 L1141.2903 981.0847" clip-path="url(#clipPath2)" transform="matrix(1,0,0,1,766,1055)"/><path stroke="none" d="M1141.9502 989.0574 L1145.9432 976.6859 L1141.2078 980.0881 L1135.9774 977.5108 Z" clip-path="url(#clipPath2)" transform="matrix(1,0,0,1,766,1055)"/><path fill="none" d="M868.6041 -557.2497 L1611.6683 -449.6156" clip-path="url(#clipPath2)" transform="matrix(1,0,0,1,766,1055)"/><path stroke="none" d="M1619.5857 -448.4688 L1608.4264 -455.1374 L1610.6787 -449.759 L1606.9928 -445.2407 Z" clip-path="url(#clipPath2)" transform="matrix(1,0,0,1,766,1055)"/><path fill="none" d="M1888.8008 -370.475 L1888.8008 -229.0484" clip-path="url(#clipPath2)" transform="matrix(1,0,0,1,766,1055)"/><path stroke="none" d="M1888.8008 -221.0484 L1893.8008 -233.0484 L1888.8008 -230.0484 L1883.8008 -233.0484 Z" clip-path="url(#clipPath2)" transform="matrix(1,0,0,1,766,1055)"/><path fill="none" d="M1858.3004 -143.1209 L1515.5984 294.7747 L648.6132 410.7172" clip-path="url(#clipPath2)" transform="matrix(1,0,0,1,766,1055)"/><path stroke="none" d="M640.6838 411.7776 L653.2407 415.1429 L649.6044 410.5846 L651.9152 405.2311 Z" clip-path="url(#clipPath2)" transform="matrix(1,0,0,1,766,1055)"/><path fill="none" d="M868.5824 -579.2352 L2281.7263 -438.91" clip-path="url(#clipPath2)" transform="matrix(1,0,0,1,766,1055)"/><path stroke="none" d="M2289.6873 -438.1194 L2278.24 -444.2807 L2280.7312 -439.0088 L2277.252 -434.3297 Z" clip-path="url(#clipPath2)" transform="matrix(1,0,0,1,766,1055)"/><path fill="none" d="M2578.1758 -370.475 L2578.1758 -229.0484" clip-path="url(#clipPath2)" transform="matrix(1,0,0,1,766,1055)"/><path stroke="none" d="M2578.1758 -221.0484 L2583.1758 -233.0484 L2578.1758 -230.0484 L2573.1758 -233.0484 Z" clip-path="url(#clipPath2)" transform="matrix(1,0,0,1,766,1055)"/><path fill="none" d="M2542.4907 -143.1074 L1987.3069 463.4329 L818.6904 454.4014" clip-path="url(#clipPath2)" transform="matrix(1,0,0,1,766,1055)"/><path stroke="none" d="M810.6906 454.3395 L822.6516 459.4321 L819.6904 454.4091 L822.7289 449.4324 Z" clip-path="url(#clipPath2)" transform="matrix(1,0,0,1,766,1055)"/><path fill="none" d="M384.1764 -345.8706 L383.3943 -323.8746" clip-path="url(#clipPath2)" transform="matrix(1,0,0,1,766,1055)"/><path stroke="none" d="M383.1101 -315.8796 L388.5333 -327.6944 L383.4299 -324.874 L378.5396 -328.0497 Z" clip-path="url(#clipPath2)" transform="matrix(1,0,0,1,766,1055)"/><path fill="none" d="M287.158 -256.4961 L172.6217 -220.6686" clip-path="url(#clipPath2)" transform="matrix(1,0,0,1,766,1055)"/><path stroke="none" d="M164.9866 -218.2803 L177.932 -217.0908 L173.5761 -220.9671 L174.9466 -226.6347 Z" clip-path="url(#clipPath2)" transform="matrix(1,0,0,1,766,1055)"/><path fill="none" d="M465.4101 -256.5118 L557.3882 -223.7748" clip-path="url(#clipPath2)" transform="matrix(1,0,0,1,766,1055)"/><path stroke="none" d="M564.9251 -221.0923 L555.2964 -229.8266 L556.4462 -224.1101 L551.9432 -220.4055 Z" clip-path="url(#clipPath2)" transform="matrix(1,0,0,1,766,1055)"/><path fill="none" d="M349.0931 489.7989 L349.0931 746.4083" clip-path="url(#clipPath2)" transform="matrix(1,0,0,1,766,1055)"/><path stroke="none" d="M349.0931 754.4083 L354.0931 742.4083 L349.0931 745.4083 L344.0931 742.4083 Z" clip-path="url(#clipPath2)" transform="matrix(1,0,0,1,766,1055)"/><path fill="none" d="M352.5748 832.4171 L365.8525 981.0659" clip-path="url(#clipPath2)" transform="matrix(1,0,0,1,766,1055)"/><path stroke="none" d="M366.5643 989.0341 L370.4768 976.6368 L365.7636 980.0698 L360.5165 977.5266 Z" clip-path="url(#clipPath2)" transform="matrix(1,0,0,1,766,1055)"/><path fill="none" d="M674.5168 -397.1617 L840.9175 -397.1617" clip-path="url(#clipPath2)" transform="matrix(1,0,0,1,766,1055)"/><path stroke="none" d="M848.9175 -397.1617 L836.9175 -402.1617 L839.9175 -397.1617 L836.9175 -392.1617 Z" clip-path="url(#clipPath2)" transform="matrix(1,0,0,1,766,1055)"/></g></g></svg>